<svg width="561" height="260" viewBox="0 0 561 260" fill="none" xmlns="http://www.w3.org/2000/svg">
<path d="M10.3072 180.514V154.479L75.5859 51.6364H98.0327V87.6733H84.7479L43.5955 152.799V154.021H136.36V180.514H10.3072ZM85.3587 208V172.574L85.9695 161.045V51.6364H116.967V208H85.3587Z" fill="#1EAD2B"/>
<path d="M425.307 180.514V154.479L490.586 51.6364H513.033V87.6733H499.748L458.596 152.799V154.021H551.36V180.514H425.307ZM500.359 208V172.574L500.969 161.045V51.6364H531.967V208H500.359Z" fill="#1EAD2B"/>
<path d="M365.892 183.587V108.984C365.889 105.714 365.022 102.501 363.378 99.6698C361.735 96.8381 359.372 94.4867 356.528 92.8514L290.982 55.5498L281.618 50.0479L272.254 55.5498L206.708 92.8514C203.863 94.4867 201.501 96.8381 199.858 99.6698C198.214 102.501 197.347 105.714 197.344 108.984V183.587C197.347 186.858 198.214 190.07 199.858 192.902C201.501 195.734 203.863 198.085 206.708 199.72L272.254 237.022C275.101 238.659 278.331 239.521 281.618 239.521C284.905 239.521 288.135 238.659 290.982 237.022L356.528 199.72C359.372 198.085 361.735 195.734 363.378 192.902C365.022 190.07 365.889 186.858 365.892 183.587Z" stroke="#1EAD2B" stroke-width="10" stroke-linecap="round" stroke-linejoin="round"/>
<path d="M199.875 99.2861L281.621 146.379L363.367 99.2861" stroke="#1EAD2B" stroke-width="10" stroke-linecap="round" stroke-linejoin="round"/>
<path d="M281.625 235.81V146.286" stroke="#1EAD2B" stroke-width="10" stroke-linecap="round" stroke-linejoin="round"/>
<path d="M200.719 99.2861L281.622 146.286" stroke="#1EAD2B" stroke-width="10"/>
<path d="M377.276 125.214L362.523 99.2861L281.62 146.286L296.251 172.858C298.696 177.297 304.332 178.829 308.688 176.239L374.066 137.353C378.264 134.856 379.691 129.459 377.276 125.214Z" fill="white" stroke="#1EAD2B" stroke-width="10"/>
<path d="M184.842 125.214L199.594 99.2861L280.498 146.286L265.866 172.858C263.421 177.297 257.785 178.829 253.429 176.239L188.051 137.353C183.853 134.856 182.426 129.459 184.842 125.214Z" fill="white" stroke="#1EAD2B" stroke-width="10"/>
<path d="M377.276 70.0011L362.523 95.9287L281.62 48.9287L296.251 22.3572C298.696 17.9175 304.332 16.3853 308.688 18.9762L374.066 57.8616C378.264 60.3584 379.691 65.7559 377.276 70.0011Z" fill="white" stroke="#1EAD2B" stroke-width="10"/>
<path d="M184.842 70.0011L199.594 95.9287L280.498 48.9287L265.866 22.3572C263.421 17.9175 257.785 16.3853 253.429 18.9762L188.051 57.8616C183.853 60.3584 182.426 65.7559 184.842 70.0011Z" fill="white" stroke="#1EAD2B" stroke-width="10"/>
</svg>
