<svg width="60" height="60" viewBox="0 0 60 60" fill="none" xmlns="http://www.w3.org/2000/svg">
<path d="M20.6836 9.43379C20.6836 9.10566 20.6836 8.84785 20.6836 8.60176C20.6953 7.93379 21.0586 7.57051 21.7383 7.55879C22.7578 7.54707 23.7656 7.55879 24.7852 7.55879C24.9961 7.55879 25.207 7.55879 25.4883 7.55879C25.1953 5.71894 25.7227 4.21894 27.0586 3.02363C27.8906 2.27363 28.9219 1.94551 30 1.96894C31.4297 1.99238 32.6836 2.53144 33.5977 3.6916C34.4883 4.8166 34.7578 6.09394 34.5234 7.55879C35.707 7.55879 36.8086 7.55879 37.9219 7.55879C39.0703 7.55879 39.293 7.78144 39.3281 8.95332C39.3281 9.08222 39.3516 9.22285 39.3633 9.43379C39.6094 9.43379 39.832 9.43379 40.0547 9.43379C42.4688 9.43379 44.8945 9.39863 47.3086 9.45722C47.9531 9.46894 48.6445 9.65644 49.2305 9.92597C50.2617 10.4064 50.5547 11.3674 50.5547 12.4338C50.5547 18.3752 50.5547 24.3283 50.5547 30.2697C50.5547 38.7072 50.5547 47.1564 50.5547 55.5939C50.5547 56.1916 50.5547 56.7775 50.1211 57.2814C49.6641 57.8088 49.1133 58.0197 48.4336 58.0197C36.1523 58.0197 23.8711 58.008 11.5898 58.0314C10.4766 58.0314 9.73828 57.34 9.52734 56.4494C9.49219 56.3205 9.48047 56.1916 9.48047 56.0627C9.48047 41.5783 9.48047 27.0939 9.48047 12.5978C9.48047 11.4611 9.77344 10.4533 10.8047 9.90254C11.3672 9.59785 12.082 9.45722 12.7266 9.44551C15.1641 9.39863 17.6016 9.42207 20.0391 9.42207C20.2031 9.43379 20.4023 9.43379 20.6836 9.43379ZM44.9883 52.4533C44.9883 39.926 44.9883 27.4807 44.9883 15.0002C43.0898 15.0002 41.2383 15.0002 39.3633 15.0002C39.3516 15.1291 39.3281 15.2228 39.3281 15.3166C39.2813 16.5471 39 16.8283 37.793 16.8283C32.5664 16.8283 27.3516 16.8283 22.125 16.8283C21.0703 16.8283 20.7188 16.4885 20.6953 15.4455C20.6953 15.2932 20.6602 15.1525 20.6484 15.0119C18.75 15.0119 16.8867 15.0119 15.0469 15.0119C15.0469 27.5275 15.0469 39.9846 15.0469 52.4533C25.043 52.4533 34.9922 52.4533 44.9883 52.4533ZM20.6484 11.215C20.4023 11.215 20.2148 11.215 20.0273 11.215C17.5078 11.215 15 11.215 12.4805 11.215C11.543 11.215 11.2383 11.5314 11.2383 12.4807C11.2383 26.8361 11.2383 41.1799 11.2383 55.5354C11.2383 55.7463 11.2383 55.9455 11.2383 56.1799C23.7773 56.1799 36.2344 56.1799 48.7617 56.1799C48.7617 55.9455 48.7617 55.758 48.7617 55.5705C48.7617 41.1799 48.7617 26.7893 48.7617 12.3986C48.7617 11.5314 48.4453 11.215 47.5547 11.215C45 11.215 42.4453 11.215 39.8906 11.215C39.7031 11.215 39.5156 11.2385 39.3516 11.2502C39.3516 11.9299 39.3516 12.5158 39.3516 13.1721C39.5977 13.1721 39.8086 13.1721 40.0195 13.1721C41.7891 13.1721 43.5703 13.1721 45.3398 13.1721C46.582 13.1721 46.793 13.383 46.793 14.6252C46.793 27.3986 46.793 40.1721 46.793 52.9338C46.793 53.965 46.4883 54.2697 45.4336 54.2697C35.1445 54.2697 24.8438 54.2697 14.5547 54.2697C14.3789 54.2697 14.1563 54.3283 14.0391 54.2463C13.7578 54.0471 13.4648 53.8244 13.3008 53.5432C13.1719 53.3088 13.1953 52.9807 13.1953 52.6877C13.1953 40.0314 13.1953 27.3752 13.1953 14.7307C13.1953 14.5197 13.1953 14.2971 13.2305 14.0861C13.3359 13.3947 13.6172 13.1721 14.3203 13.1721C16.207 13.1721 18.1055 13.1721 19.9922 13.1721C20.2031 13.1721 20.4023 13.1721 20.6484 13.1721C20.6484 12.5041 20.6484 11.9064 20.6484 11.215ZM37.4883 15.0119C37.4883 13.09 37.4883 11.2502 37.4883 9.34004C36.1641 9.34004 34.8867 9.34004 33.6094 9.34004C32.5195 9.34004 32.1914 8.81269 32.5898 7.8166C33.0234 6.73847 32.9766 5.68379 32.2266 4.74629C31.5 3.84394 30.5039 3.57441 29.4023 3.75019C27.6094 4.05488 26.6367 6.09394 27.4219 7.85176C27.832 8.76582 27.4805 9.32832 26.4844 9.35176C26.1563 9.36347 25.8164 9.35176 25.4883 9.35176C24.5039 9.35176 23.5195 9.35176 22.5117 9.35176C22.5117 11.2853 22.5117 13.1486 22.5117 15.0236C27.5273 15.0119 32.4961 15.0119 37.4883 15.0119Z" fill="url(#paint0_linear_574_49896)"/>
<path d="M29.9763 35.5313C28.0661 35.5313 26.156 35.5547 24.2575 35.5195C22.8278 35.4961 21.6677 34.2539 21.656 32.8008C21.6325 29.7187 21.6208 26.6367 21.6325 23.5664C21.6325 21.9023 22.8864 20.6719 24.5857 20.6602C25.7692 20.6602 26.9646 20.6602 28.1481 20.6602C30.5271 20.6602 32.906 20.6602 35.2849 20.6602C36.6442 20.6602 37.6755 21.2344 38.1794 22.5234C38.3435 22.9453 38.3786 23.4258 38.3786 23.8828C38.3903 26.707 38.3669 29.5313 38.3903 32.3672C38.4138 34.2305 37.1364 35.6133 35.238 35.5547C33.4802 35.5078 31.7341 35.543 29.9763 35.543V35.5313ZM32.7653 22.4531C32.7653 23.9648 32.7771 25.3945 32.7653 26.8125C32.7419 27.9609 32.0388 28.3828 31.0778 27.75C30.3278 27.2578 29.6716 27.2109 28.9685 27.75C28.9216 27.7852 28.8747 27.8086 28.8161 27.8438C27.9255 28.2891 27.2575 27.8906 27.2458 26.9063C27.2341 25.6406 27.2458 24.375 27.2458 23.1094C27.2458 22.8984 27.2224 22.6992 27.2106 22.4648C26.1677 22.4648 25.195 22.4414 24.2224 22.4766C23.695 22.4883 23.4138 22.8633 23.4138 23.3672C23.4021 26.543 23.4021 29.7187 23.4138 32.9062C23.4138 33.4687 23.7302 33.7734 24.3044 33.7734C28.1013 33.7852 31.9099 33.7852 35.7067 33.7734C36.1755 33.7734 36.5856 33.3633 36.5856 32.8828C36.5974 29.707 36.5974 26.5312 36.5856 23.3437C36.5856 22.8633 36.2575 22.5 35.8122 22.4766C34.8278 22.418 33.8317 22.4531 32.7653 22.4531ZM29.0622 22.4883C29.0622 23.5898 29.0622 24.6094 29.0622 25.6758C29.4138 25.5586 29.7185 25.3711 30.0231 25.3711C30.3161 25.3711 30.6208 25.5586 30.9372 25.6758C30.9372 24.5625 30.9372 23.5312 30.9372 22.4883C30.281 22.4883 29.695 22.4883 29.0622 22.4883Z" fill="url(#paint1_linear_574_49896)"/>
<path d="M29.9771 48.6563C26.6607 48.6563 23.356 48.6563 20.0396 48.6563C19.3834 48.6563 18.856 48.293 18.8209 47.8242C18.7857 47.3203 19.3599 46.8633 20.0748 46.8633C22.9576 46.8633 25.8404 46.8633 28.7232 46.8633C32.4029 46.8633 36.0943 46.8633 39.774 46.8633C39.9732 46.8633 40.1607 46.8633 40.3599 46.8984C40.8521 46.9688 41.1802 47.2383 41.1568 47.7656C41.1334 48.3047 40.7701 48.6445 40.2076 48.6445C39.3287 48.6563 38.4498 48.6445 37.5709 48.6445C35.0396 48.6563 32.5084 48.6563 29.9771 48.6563Z" fill="url(#paint2_linear_574_49896)"/>
<path d="M32.3551 39.387C34.8278 39.387 37.3122 39.387 39.7848 39.387C40.0309 39.387 40.3356 39.3753 40.5114 39.5042C40.7809 39.7034 41.1794 40.0316 41.1442 40.2777C41.109 40.5706 40.7458 40.8753 40.4528 41.0863C40.2887 41.2034 40.0075 41.1683 39.7731 41.1683C34.8044 41.1683 29.8356 41.1683 24.8551 41.1683C24.363 41.1683 23.8825 41.1449 23.6247 40.6058C23.3903 40.1019 23.613 39.5863 24.1637 39.4691C24.4098 39.4105 24.6676 39.387 24.9137 39.387C27.4098 39.3753 29.8825 39.387 32.3551 39.387Z" fill="url(#paint3_linear_574_49896)"/>
<path d="M34.2192 44.918C32.309 44.918 30.3989 44.918 28.5004 44.918C28.3246 44.918 28.102 44.9531 27.9965 44.8711C27.7153 44.625 27.3168 44.3437 27.2817 44.0391C27.2348 43.6523 27.5746 43.3008 28.0317 43.2187C28.2426 43.1836 28.4535 43.1367 28.6645 43.1367C32.3793 43.1367 36.1059 43.1367 39.8207 43.1367C39.9731 43.1367 40.1254 43.1484 40.2778 43.1719C40.7582 43.2539 41.1215 43.5117 41.1449 44.0156C41.1684 44.5312 40.6762 44.918 40.0668 44.918C38.1098 44.918 36.1645 44.918 34.2192 44.918Z" fill="url(#paint4_linear_574_49896)"/>
<path d="M22.0191 44.918C21.3159 44.918 20.6245 44.918 19.9214 44.918C19.3823 44.918 18.7847 44.4961 18.8198 44.0742C18.855 43.5937 19.1714 43.2656 19.6753 43.1953C19.9448 43.1602 20.2144 43.125 20.4839 43.125C21.6675 43.1133 22.8511 43.1133 24.0464 43.125C24.9605 43.1367 25.523 43.793 25.0659 44.4023C24.8784 44.6484 24.4917 44.8594 24.1753 44.8945C23.4605 44.9648 22.7456 44.918 22.0191 44.918Z" fill="url(#paint5_linear_574_49896)"/>
<path d="M20.0622 39.3867C20.9529 39.3867 21.5271 39.75 21.5505 40.2539C21.5857 40.7813 20.988 41.168 20.156 41.168C19.2068 41.168 18.6794 40.6758 18.9138 39.9727C19.113 39.3633 19.6638 39.3984 20.0622 39.3867Z" fill="url(#paint6_linear_574_49896)"/>
<defs>
<linearGradient id="paint0_linear_574_49896" x1="30.0176" y1="1.96777" x2="30.0176" y2="58.0314" gradientUnits="userSpaceOnUse">
<stop stop-color="#1EAD2B"/>
<stop offset="1" stop-color="#219653"/>
</linearGradient>
<linearGradient id="paint1_linear_574_49896" x1="30.0093" y1="20.6602" x2="30.0093" y2="35.5565" gradientUnits="userSpaceOnUse">
<stop stop-color="#1EAD2B"/>
<stop offset="1" stop-color="#219653"/>
</linearGradient>
<linearGradient id="paint2_linear_574_49896" x1="29.9887" y1="46.8633" x2="29.9887" y2="48.6563" gradientUnits="userSpaceOnUse">
<stop stop-color="#1EAD2B"/>
<stop offset="1" stop-color="#219653"/>
</linearGradient>
<linearGradient id="paint3_linear_574_49896" x1="32.3393" y1="39.3818" x2="32.3393" y2="41.1732" gradientUnits="userSpaceOnUse">
<stop stop-color="#1EAD2B"/>
<stop offset="1" stop-color="#219653"/>
</linearGradient>
<linearGradient id="paint4_linear_574_49896" x1="34.2115" y1="43.1367" x2="34.2115" y2="44.9254" gradientUnits="userSpaceOnUse">
<stop stop-color="#1EAD2B"/>
<stop offset="1" stop-color="#219653"/>
</linearGradient>
<linearGradient id="paint5_linear_574_49896" x1="22.0232" y1="43.1162" x2="22.0232" y2="44.9333" gradientUnits="userSpaceOnUse">
<stop stop-color="#1EAD2B"/>
<stop offset="1" stop-color="#219653"/>
</linearGradient>
<linearGradient id="paint6_linear_574_49896" x1="20.2052" y1="39.3867" x2="20.2052" y2="41.168" gradientUnits="userSpaceOnUse">
<stop stop-color="#1EAD2B"/>
<stop offset="1" stop-color="#219653"/>
</linearGradient>
</defs>
</svg>
