<svg width="32" height="32" viewBox="0 0 32 32" fill="none" xmlns="http://www.w3.org/2000/svg">
<path d="M3.11399 26.7692C3.20608 26.3024 3.34482 25.8649 3.49555 25.5L6.52483 20L9.5541 25.5C9.67971 25.8649 9.8728 26.3024 9.93276 26.7692M3.11399 26.7692C2.74337 28.6477 3.12796 31 6.52482 31C9.92169 31 10.174 28.6477 9.93276 26.7692M3.11399 26.7692H9.93276" stroke="#212121" stroke-width="2" stroke-linejoin="round"/>
<path d="M14.114 23.7692C14.2061 23.3024 14.3448 22.8649 14.4956 22.5L17.5248 17L20.5541 22.5C20.6797 22.8649 20.8728 23.3024 20.9328 23.7692M14.114 23.7692C13.7434 25.6477 14.128 28 17.5248 28C20.9217 28 21.174 25.6477 20.9328 23.7692M14.114 23.7692H20.9328" stroke="#212121" stroke-width="2" stroke-linejoin="round"/>
<path d="M2 21L11.6154 18.3958M20.4615 16L11.6154 18.3958M11.6154 11V18.3958" stroke="#212121" stroke-width="2" stroke-linecap="round"/>
<circle cx="23" cy="9" r="9" fill="#1EAD2B"/>
<path d="M27 6L21.5 11.5L19 9" stroke="white" stroke-width="2" stroke-linecap="round" stroke-linejoin="round"/>
</svg>
