<svg width="40" height="40" viewBox="0 0 40 40" fill="none" xmlns="http://www.w3.org/2000/svg">
<path d="M23.1484 32.4764C21.8516 32.4764 20.625 32.4764 19.375 32.4764C19.3672 32.5858 19.3516 32.6717 19.3516 32.7577C19.3359 33.5233 19.1641 33.6952 18.4063 33.6952C17.3672 33.6952 16.3281 33.6952 15.2891 33.6952C14.6094 33.6952 14.4219 33.5155 14.4141 32.828C14.4063 32.3124 14.4141 31.7889 14.4141 31.203C14.1016 31.203 13.8047 31.2186 13.5156 31.203C12.875 31.1561 12.2188 31.1639 11.6094 31.0155C10.5703 30.7655 9.9375 30.0077 9.58594 29.0233C9.5 28.7889 9.39844 28.703 9.14844 28.703C7.42188 28.7108 5.69531 28.7108 3.96094 28.7108C3.46094 28.7108 3.1875 28.4296 3.1875 27.9217C3.1875 23.0858 3.1875 18.2499 3.1875 13.4139C3.1875 12.7811 3.39844 12.5702 4.03125 12.5389C4.07031 12.5389 4.10938 12.5389 4.14844 12.5389C9.72656 12.5389 15.2969 12.5389 20.875 12.5389C21.2344 12.5389 21.5938 12.5624 21.7656 12.9452C21.8281 13.078 21.8438 13.2421 21.8438 13.3905C21.8516 17.4999 21.8438 21.6092 21.8438 25.7108C21.8438 25.8749 21.8438 26.0467 21.8438 26.2342C22.2891 26.2342 22.6953 26.2342 23.1484 26.2342C23.1484 26.0702 23.1484 25.9139 23.1484 25.7655C23.1719 24.3124 23.1641 22.8592 23.2266 21.4061C23.2734 20.2655 23.8359 19.3514 24.6797 18.6092C25.5703 17.8124 26.6406 17.5311 27.8047 17.5311C27.8984 17.5311 27.9844 17.5233 28.1406 17.5155C28.1406 17.1171 28.1563 16.7186 28.125 16.3202C28.1172 16.2342 27.9453 16.1171 27.8281 16.0936C26.875 15.8749 26.0859 15.4061 25.4453 14.6639C24.7578 13.8671 24.4297 12.9374 24.4063 11.9061C24.3828 10.9608 24.3984 10.0077 24.3906 9.06237C24.3906 8.97643 24.3828 8.88268 24.3672 8.74206C24.2188 8.74206 24.0781 8.74206 23.9453 8.74206C22.9453 8.74206 21.9453 8.74987 20.9453 8.73425C20.7188 8.73425 20.4375 8.72643 20.2891 8.60143C20.1484 8.47643 20.0781 8.17956 20.0938 7.96862C20.1172 7.64831 20.4063 7.55456 20.6953 7.54675C21.5625 7.53893 22.4375 7.54675 23.3047 7.54675C23.4453 7.54675 23.5859 7.54675 23.7109 7.54675C23.7813 6.91393 23.8047 6.32018 23.9219 5.74206C24.1875 4.40612 24.8672 3.32018 25.9609 2.48425C27.0313 1.66394 28.2266 1.24987 29.5469 1.32019C31.3203 1.41394 32.7656 2.15612 33.8516 3.60143C34.8672 4.953 34.9844 6.49206 34.9375 8.08581C34.9297 8.44518 34.7344 8.68737 34.3203 8.73425C34.3203 8.94518 34.3203 9.14831 34.3203 9.35143C34.3125 10.828 34.3281 12.3124 34.2813 13.7889C34.2578 14.578 33.8984 15.2499 33.2891 15.7811C33.1719 15.8827 33.0938 16.078 33.0859 16.2421C33.0547 16.6796 33.0781 17.1171 33.0781 17.5624C33.9922 17.7655 34.7813 18.1171 35.4375 18.7342C36.4297 19.6717 36.8203 20.8514 36.8203 22.1874C36.8203 27.3749 36.8203 32.5624 36.8203 37.7499C36.8203 38.4842 36.6016 38.6952 35.875 38.6952C31.9531 38.6952 28.0234 38.6952 24.1016 38.6952C23.3359 38.6952 23.1484 38.4999 23.1484 37.7264C23.1484 36.1405 23.1484 34.5546 23.1484 32.9686C23.1484 32.8046 23.1484 32.6561 23.1484 32.4764ZM12.5156 18.8124C12.0547 19.1249 11.5859 19.3983 11.1641 19.7342C10.8906 19.953 10.5781 19.9999 10.3438 19.8436C10.1719 19.7342 10.1328 19.4139 10.0547 19.1796C10.0234 19.1014 10.0469 18.9999 10.0469 18.9061C10.0469 17.3358 10.0469 15.7577 10.0469 14.1874C10.0469 14.0467 10.0469 13.9139 10.0469 13.7577C8.13281 13.7577 6.27344 13.7577 4.40625 13.7577C4.40625 18.3514 4.40625 22.9139 4.40625 27.4842C7.75781 27.4842 11.0703 27.4842 14.3828 27.4842C14.3984 27.4296 14.4141 27.3983 14.4141 27.3749C14.4141 26.8827 14.4141 26.3905 14.4219 25.8905C14.4375 25.1952 14.6094 25.0155 15.2969 25.0155C16.3594 25.0155 17.4297 25.0155 18.4922 25.0155C19.1094 25.0155 19.3516 25.2577 19.3516 25.8671C19.3516 25.9921 19.3672 26.1171 19.3672 26.2342C19.8125 26.2342 20.2109 26.2342 20.625 26.2342C20.625 22.0624 20.625 17.9139 20.625 13.7499C18.7344 13.7499 16.875 13.7499 14.9766 13.7499C14.9766 13.9217 14.9766 14.0624 14.9766 14.203C14.9766 15.5389 14.9766 16.8827 14.9766 18.2186C14.9766 18.5546 14.9844 18.8983 14.9766 19.2342C14.9531 19.8124 14.5234 20.078 14.0391 19.7889C13.5234 19.4921 13.0313 19.1483 12.5156 18.8124ZM24.3359 26.2655C25 26.2655 25.6094 26.2733 26.2188 26.2655C26.6406 26.2577 26.8828 26.0077 26.8828 25.5858C26.8828 24.8827 26.8672 24.1796 26.8906 23.4764C26.9141 22.4921 27.1172 21.6014 27.8984 20.8671C28.7813 20.0389 30.4453 19.7889 31.4922 20.4452C32.5391 21.1014 33.0547 22.0546 33.0703 23.2811C33.0859 24.4139 33.0859 25.5467 33.0703 26.6717C33.0469 27.9842 32.7266 29.2108 31.8984 30.2577C30.9063 31.4999 29.6172 32.2577 28.0234 32.3827C26.9609 32.4608 25.8828 32.4374 24.8125 32.453C24.6641 32.453 24.5156 32.453 24.3672 32.453C24.3672 33.3358 24.3672 34.1483 24.3672 34.9764C28.125 34.9764 31.8594 34.9764 35.625 34.9764C35.625 34.8046 35.625 34.6639 35.625 34.5233C35.625 30.3124 35.5938 26.1014 35.6406 21.8905C35.6641 20.2108 34.1016 18.6561 32.4688 18.7108C30.8359 18.7655 29.1953 18.7108 27.5547 18.7342C27.1719 18.7421 26.7656 18.7733 26.4141 18.9061C25.3438 19.3046 24.6172 20.0467 24.4219 21.203C24.3438 21.6874 24.3438 22.1796 24.3359 22.6717C24.3281 23.8436 24.3359 25.0233 24.3359 26.2655ZM19.3672 31.2577C19.5469 31.2577 19.6719 31.2577 19.8047 31.2577C22.3906 31.2577 24.9766 31.2577 27.5625 31.2577C29.8828 31.2577 31.9141 29.2811 31.8906 26.9452C31.875 25.6874 31.875 24.4217 31.8906 23.1639C31.8984 22.6717 31.7578 22.2655 31.4453 21.8827C30.9375 21.2733 30.1094 20.9999 29.3125 21.3202C28.6797 21.578 28.0781 22.1561 28.0859 23.0389C28.0938 23.9452 28.1094 24.8592 28.0547 25.7655C28.0391 26.0702 27.8828 26.4061 27.7031 26.6717C27.2656 27.3046 26.6016 27.4608 25.875 27.4608C23.8594 27.4608 21.8516 27.4608 19.8359 27.4608C19.6875 27.4608 19.5391 27.4608 19.375 27.4608C19.3672 28.7499 19.3672 29.9764 19.3672 31.2577ZM29.3438 17.4921C30.1797 17.4921 31.0078 17.4921 31.8828 17.4921C31.8828 16.9374 31.875 16.3905 31.8828 15.8514C31.8906 15.5233 31.9453 15.2264 32.2969 15.0546C32.8594 14.7733 33.1172 14.2811 33.1172 13.6639C33.125 12.1327 33.125 10.6014 33.1172 9.07018C33.1172 8.96862 33.0938 8.87487 33.0859 8.77331C30.5781 8.77331 28.0938 8.77331 25.5859 8.77331C25.5859 10.0233 25.5859 11.2421 25.5859 12.4608C25.5859 12.4842 25.5938 12.5155 25.5938 12.5389C25.9844 13.9764 27.1797 15.1014 28.7578 15.0467C29.1563 15.0311 29.5625 15.0467 29.9609 15.0858C30.2813 15.1171 30.5234 15.2967 30.5234 15.6561C30.5234 15.9921 30.2109 16.2342 29.8281 16.2421C29.6641 16.2421 29.5078 16.2421 29.3281 16.2421C29.3438 16.6796 29.3438 17.0624 29.3438 17.4921ZM33.7266 7.52331C33.9063 5.74206 33.3359 4.28112 31.9063 3.29675C30.0313 2.00769 28.1172 2.33581 26.6875 3.38268C25.3047 4.39831 24.7578 6.11706 25.0313 7.52331C27.9141 7.52331 30.8047 7.52331 33.7266 7.52331ZM15.6328 26.2342C15.6328 28.328 15.6328 30.3983 15.6328 32.4764C16.4844 32.4764 17.3047 32.4764 18.125 32.4764C18.125 30.3749 18.125 28.3046 18.125 26.2342C17.2734 26.2342 16.4609 26.2342 15.6328 26.2342ZM24.3594 37.4764C28.1328 37.4764 31.8594 37.4764 35.5938 37.4764C35.5938 37.0467 35.5938 36.6405 35.5938 36.2264C31.8359 36.2264 28.1016 36.2264 24.3594 36.2264C24.3594 36.6561 24.3594 37.0467 24.3594 37.4764ZM13.7578 18.2577C13.7578 16.7108 13.7578 15.2421 13.7578 13.7577C12.9141 13.7577 12.0938 13.7577 11.2578 13.7577C11.2578 15.2499 11.2578 16.703 11.2578 18.2421C11.5859 18.0311 11.8672 17.8592 12.1406 17.6717C12.3906 17.5077 12.625 17.4764 12.8828 17.6717C13.1406 17.8592 13.4219 18.0311 13.7578 18.2577ZM14.3906 28.7499C13.1563 28.7499 11.9531 28.7499 10.6953 28.7499C10.9688 29.328 11.3047 29.8124 11.875 29.8983C12.6953 30.0233 13.5391 29.9999 14.3906 30.0467C14.3906 29.5624 14.3906 29.1639 14.3906 28.7499Z" fill="url(#paint0_linear_574_49774)"/>
<defs>
<linearGradient id="paint0_linear_574_49774" x1="20.0039" y1="1.3125" x2="20.0039" y2="38.6952" gradientUnits="userSpaceOnUse">
<stop stop-color="#1EAD2B"/>
<stop offset="1" stop-color="#219653"/>
</linearGradient>
</defs>
</svg>
