<svg width="40" height="40" viewBox="0 0 40 40" fill="none" xmlns="http://www.w3.org/2000/svg">
<path d="M38.6728 21.2266C38.6728 25.5 38.6728 29.7813 38.6728 34.0547C38.6728 34.6172 38.5244 34.7969 37.9775 34.8672C37.8369 34.8828 37.6884 34.875 37.5478 34.875C29.9463 34.875 22.3447 34.8828 14.7431 34.8516C14.1103 34.8516 13.8213 35.1016 13.5556 35.5781C13.1181 36.375 12.6806 37.1719 12.1884 37.9375C11.4619 39.0469 9.82125 39.1172 9.11813 37.9844C8.30563 36.6797 7.53219 35.3438 6.76657 34.0078C6.13375 32.9063 5.4775 31.8125 4.915 30.6797C4.09469 29.0469 3.33688 27.3828 2.57125 25.7188C2.04 24.5547 1.63375 23.3516 1.40719 22.0859C1.2275 21.1016 1.32125 20.125 1.54 19.1641C2.15719 16.4609 3.68844 14.4219 6.07907 13.0234C6.18844 12.9609 6.26656 12.7578 6.26656 12.625C6.28219 11.4297 6.30563 10.2344 6.25875 9.03906C6.23531 8.29688 6.39157 7.66406 6.79 7.02344C7.87594 5.28125 8.915 3.5 9.95407 1.72656C10.1806 1.34375 10.4541 1.19531 10.8994 1.19531C18.6181 1.20313 26.3369 1.20313 34.0556 1.19531C34.5166 1.19531 34.7978 1.35156 35.0322 1.75C36.1884 3.72656 37.3681 5.6875 38.5244 7.66406C38.6494 7.88281 38.6963 8.17969 38.6963 8.4375C38.7041 12.7031 38.7041 16.9609 38.7041 21.2266C38.6884 21.2266 38.6806 21.2266 38.6728 21.2266ZM7.51656 12.3828C9.02438 11.875 10.5166 11.7422 12.0322 11.9609C13.7353 12.2109 15.2588 12.8906 16.5713 13.9844C18.0791 15.2422 19.0947 16.8281 19.6259 18.7344C20.0947 20.4063 20.0478 22.0547 19.4697 23.6797C19.0713 24.8125 18.5869 25.9141 18.1103 27.0156C17.6963 27.9688 17.2509 28.9141 16.7744 29.8359C16.1572 31.0234 15.4931 32.1797 14.8525 33.3516C14.8056 33.4375 14.7978 33.5391 14.7666 33.6406C22.3525 33.6406 29.8994 33.6406 37.4384 33.6406C37.4384 25.3047 37.4384 17.0078 37.4384 8.71094C33.8838 8.71094 30.3759 8.71094 26.8369 8.71094C26.8369 10.0625 26.8369 11.3906 26.8369 12.7109C26.8369 13.4766 26.6338 13.6719 25.8603 13.6719C23.6025 13.6719 21.3369 13.6719 19.0791 13.6719C18.3213 13.6719 18.1181 13.4688 18.1181 12.7031C18.1181 11.5078 18.1181 10.3125 18.1181 9.11719C18.1181 8.97656 18.1181 8.84375 18.1181 8.71094C14.5478 8.71094 11.0322 8.71094 7.51656 8.71094C7.51656 9.94531 7.51656 11.1406 7.51656 12.3828ZM10.5244 13.0391C10.2041 13.0703 9.77438 13.0781 9.3525 13.1484C6.67281 13.5938 4.67282 15.0469 3.40719 17.4219C2.29781 19.4922 2.20406 21.6719 3.11031 23.8594C3.64157 25.1406 4.17282 26.4297 4.76657 27.6875C5.415 29.0547 6.11813 30.3984 6.81344 31.7344C7.15719 32.3984 7.54782 33.0391 7.92282 33.6797C8.64157 34.9063 9.36032 36.1328 10.0947 37.3516C10.3447 37.7578 10.8994 37.75 11.165 37.3516C11.3759 37.0391 11.5791 36.7109 11.7666 36.3828C12.7509 34.6797 13.7431 32.9766 14.6963 31.2656C15.2666 30.2422 15.8134 29.1953 16.3213 28.1406C16.8838 26.9531 17.4384 25.75 17.8994 24.5156C18.2588 23.5625 18.6025 22.5781 18.7119 21.5781C18.9228 19.7422 18.3838 18.0313 17.3056 16.5313C15.6728 14.2578 13.4384 13.0938 10.5244 13.0391ZM19.2353 2.45313C19.0478 2.45313 18.9072 2.45313 18.7666 2.45313C16.2978 2.45313 13.8291 2.46094 11.3681 2.44531C11.0713 2.44531 10.8994 2.53125 10.7509 2.78906C10.0478 3.98438 9.32125 5.16406 8.61032 6.35156C8.39938 6.69531 8.20407 7.05469 7.98532 7.42188C11.4384 7.42188 14.8369 7.42188 18.2431 7.42188C18.5791 5.76563 18.9072 4.13281 19.2353 2.45313ZM25.7588 2.45313C25.7666 2.57031 25.7588 2.64063 25.7744 2.70313C26.0713 4.20313 26.3759 5.69531 26.665 7.19531C26.7119 7.44531 26.8447 7.45313 27.0478 7.45313C30.2588 7.45313 33.4697 7.45313 36.6728 7.44531C36.7666 7.44531 36.8603 7.42188 36.9775 7.40625C36.04 5.84375 35.1259 4.32813 34.2275 2.80469C34.0713 2.53906 33.8916 2.4375 33.5791 2.44531C31.3291 2.46094 29.0869 2.45313 26.8369 2.45313C26.4853 2.45313 26.1416 2.45313 25.7588 2.45313ZM25.4463 7.4375C25.4463 7.375 25.4541 7.35156 25.4463 7.32813C25.1416 5.78125 24.8213 4.23438 24.5244 2.67969C24.4775 2.42969 24.3291 2.45313 24.1572 2.45313C23.0556 2.45313 21.9463 2.46875 20.8447 2.44531C20.5322 2.4375 20.4463 2.57031 20.3994 2.82813C20.2509 3.60156 20.0869 4.375 19.9384 5.14844C19.79 5.90625 19.6416 6.66406 19.4931 7.4375C21.4931 7.4375 23.4541 7.4375 25.4463 7.4375ZM19.3681 12.4219C21.4697 12.4219 23.5244 12.4219 25.5791 12.4219C25.5791 11.1719 25.5791 9.94531 25.5791 8.71875C23.4931 8.71875 21.4384 8.71875 19.3681 8.71875C19.3681 9.96094 19.3681 11.1797 19.3681 12.4219Z" fill="url(#paint0_linear_574_49378)"/>
<path d="M25.6021 29.9138C25.6021 27.7029 25.6021 25.5388 25.6021 23.2732C25.3052 23.5701 25.0708 23.8201 24.8208 24.0388C24.399 24.3982 23.9068 24.281 23.7974 23.781C23.7583 23.6248 23.8286 23.3826 23.9458 23.2654C24.563 22.617 25.1958 21.9842 25.8443 21.3748C26.1177 21.117 26.4302 21.2029 26.6802 21.4295C27.1411 21.867 27.5786 22.3279 28.0318 22.7732C28.1724 22.906 28.3286 23.0232 28.4615 23.1638C28.6958 23.4217 28.7271 23.8513 28.5396 24.0467C28.2818 24.3123 27.9302 24.3123 27.6177 24.0232C27.3833 23.8045 27.1646 23.5623 26.8833 23.2732C26.8833 25.531 26.8833 27.7107 26.8833 29.9138C28.3208 29.9138 29.7505 29.9138 31.2193 29.9138C31.2193 27.7342 31.2193 25.5545 31.2193 23.2888C30.938 23.5701 30.7036 23.8201 30.4536 24.0388C30.0318 24.3982 29.5396 24.2888 29.4302 23.7888C29.3911 23.6248 29.4771 23.367 29.5943 23.242C30.2036 22.6013 30.8365 21.9842 31.4693 21.3748C31.7349 21.117 32.0552 21.1873 32.2818 21.3982C32.9068 21.9763 33.5083 22.5857 34.1021 23.1951C34.3521 23.4529 34.3443 23.8748 34.1333 24.0701C33.8677 24.3201 33.5474 24.3123 33.2427 24.0232C33.0083 23.7967 32.7974 23.5467 32.5708 23.3045C32.5396 23.3201 32.5161 23.3435 32.4849 23.3592C32.4849 25.531 32.4849 27.7107 32.4849 29.9295C33.0474 29.9295 33.6021 29.9138 34.1568 29.9373C34.4536 29.9529 34.8052 29.9451 34.8833 30.3592C34.9615 30.7498 34.7661 31.0545 34.3677 31.1248C34.2661 31.1404 34.1568 31.1326 34.0552 31.1326C30.7115 31.1326 27.3755 31.1326 24.0318 31.1326C23.9927 31.1326 23.9536 31.1326 23.9146 31.1326C23.4458 31.1248 23.1568 30.906 23.1333 30.5467C23.1177 30.2263 23.4536 29.9451 23.9068 29.9373C24.3599 29.9217 24.813 29.9373 25.274 29.9295C25.3599 29.9373 25.4615 29.9217 25.6021 29.9138Z" fill="url(#paint1_linear_574_49378)"/>
<path d="M14.9457 21.1412C15.0316 23.4459 13.0707 25.5474 10.6332 25.5162C8.26599 25.4927 6.26599 23.6255 6.29724 21.149C6.32849 18.7427 8.13317 16.8755 10.6254 16.8443C13.0785 16.8052 14.9925 18.8912 14.9457 21.1412ZM10.6566 24.313C12.3519 24.3677 13.7738 22.8209 13.7738 21.188C13.7738 19.4224 12.2504 18.0162 10.6254 18.0318C8.8988 18.0474 7.48474 19.4771 7.47692 21.1959C7.47692 22.8365 8.93005 24.4068 10.6566 24.313Z" fill="url(#paint2_linear_574_49378)"/>
<defs>
<linearGradient id="paint0_linear_574_49378" x1="20.0083" y1="1.19531" x2="20.0083" y2="38.8023" gradientUnits="userSpaceOnUse">
<stop stop-color="#1EAD2B"/>
<stop offset="1" stop-color="#219653"/>
</linearGradient>
<linearGradient id="paint1_linear_574_49378" x1="29.0165" y1="21.209" x2="29.0165" y2="31.1346" gradientUnits="userSpaceOnUse">
<stop stop-color="#1EAD2B"/>
<stop offset="1" stop-color="#219653"/>
</linearGradient>
<linearGradient id="paint2_linear_574_49378" x1="10.6226" y1="16.8438" x2="10.6226" y2="25.5165" gradientUnits="userSpaceOnUse">
<stop stop-color="#1EAD2B"/>
<stop offset="1" stop-color="#219653"/>
</linearGradient>
</defs>
</svg>
