<svg width="40" height="41" viewBox="0 0 40 41" fill="none" xmlns="http://www.w3.org/2000/svg">
<g clip-path="url(#clip0_574_49383)">
<path d="M39.3369 0.804688C39.7041 1 39.8056 1.32031 39.7978 1.71094C39.7744 3.5 39.7509 5.29687 39.7431 7.08594C39.7275 9.57812 39.7275 12.0703 39.7275 14.5625C39.7275 16.6641 39.7197 18.7656 39.7275 20.8672C39.7275 23.1797 39.7353 25.4844 39.7431 27.7969C39.7431 28.1875 39.5087 28.4609 39.1259 28.4844C38.9931 28.4922 38.8681 28.4922 38.7353 28.4922C35.0556 28.4922 31.3837 28.4922 27.7041 28.4922C27.5556 28.4922 27.3994 28.4922 27.2119 28.4922C27.2431 28.5859 27.2431 28.6406 27.2744 28.6719C29.0087 30.4062 30.7353 32.1328 32.4775 33.8594C32.7275 34.1094 32.8994 34.3594 32.7666 34.7109C32.6337 35.0547 32.3134 35.1016 31.9931 35.1016C30.5634 35.1016 29.1337 35.1016 27.7041 35.1016C27.5634 35.1016 27.4228 35.1016 27.2353 35.1016C27.2353 35.2812 27.2353 35.4141 27.2353 35.5547C27.2353 36.9844 27.2353 38.4141 27.2353 39.8437C27.2353 40.3672 27.0556 40.6484 26.6572 40.6484C26.4384 40.6484 26.1728 40.5 26.0087 40.3359C24.1181 38.4531 22.2353 36.5469 20.3603 34.6484C20.1103 34.3906 19.9228 34.3672 19.6572 34.6406C18.2666 36.0469 16.8603 37.4297 15.4697 38.8281C14.9775 39.3203 14.5244 39.8516 14.0322 40.3516C13.6416 40.75 13.2744 40.8047 13.0322 40.5312C12.8759 40.3516 12.7822 40.0547 12.7822 39.8047C12.7587 38.3984 12.7744 37 12.7744 35.5937C12.7744 35.4531 12.7744 35.3125 12.7744 35.125C12.6103 35.1172 12.4775 35.1094 12.3369 35.1094C10.9228 35.1094 9.50093 35.1094 8.08686 35.1094C7.7353 35.1094 7.39936 35.0859 7.2353 34.7109C7.07124 34.3281 7.31342 34.0703 7.5478 33.8359C8.86811 32.5156 10.1962 31.2031 11.5244 29.8828C11.9541 29.4531 12.3759 29.0234 12.8994 28.5C12.6416 28.5 12.5009 28.5 12.3525 28.5C8.63374 28.5 4.9228 28.5 1.20405 28.5C0.438424 28.5 0.282174 28.3516 0.274362 27.5703C0.250924 25.9062 0.227487 24.25 0.219674 22.5859C0.219674 20.1094 0.243112 17.625 0.243112 15.1484C0.243112 12.9687 0.227487 10.7891 0.227487 8.60937C0.219674 6.29687 0.227487 3.99219 0.219674 1.67969C0.196237 1.28906 0.313424 0.984375 0.664987 0.804688C13.5556 0.804688 26.4462 0.804688 39.3369 0.804688ZM1.53217 2.13281C1.53217 10.5078 1.53217 18.8437 1.53217 27.2187C1.68842 27.2187 1.82905 27.2187 1.96967 27.2187C5.53999 27.2187 9.11811 27.2187 12.6884 27.2187C13.415 27.2187 13.4228 27.2187 13.5791 26.5312C13.8681 25.2812 14.4228 24.1797 15.3291 23.2734C16.8291 21.7734 18.6494 21.0859 20.7509 21.3359C22.5869 21.5547 24.1025 22.4297 25.2353 23.9297C25.8837 24.7891 26.3056 25.75 26.4619 26.8125C26.5087 27.1484 26.6181 27.2266 26.9462 27.2266C30.665 27.2109 34.3759 27.2187 38.0947 27.2187C38.2119 27.2187 38.3212 27.2187 38.4541 27.2187C38.4541 18.8437 38.4541 10.5 38.4541 2.13281C26.1494 2.13281 13.8603 2.13281 1.53217 2.13281ZM14.6962 27.875C14.6728 30.7187 16.9619 33.1016 19.8681 33.1719C22.7978 33.2422 25.2353 30.9297 25.3134 28.0234C25.3916 25 23.0556 22.7578 20.4306 22.5703C17.1728 22.3359 14.6572 24.9141 14.6962 27.875ZM9.38374 33.8359C10.7041 33.8359 11.9697 33.8281 13.2353 33.8359C13.8212 33.8359 14.0087 34.0234 14.0087 34.6016C14.0087 35.3672 13.9931 36.1328 13.9853 36.8984C13.9853 37.4141 13.9853 37.9297 13.9853 38.4297C15.4384 36.9844 16.8369 35.5781 18.2197 34.1953C15.9384 33.4297 14.3603 31.9219 13.6416 29.5703C12.2275 31 10.8212 32.3984 9.38374 33.8359ZM26.3447 29.625C25.6025 31.9375 24.0712 33.5 21.79 34.1797C23.1572 35.5937 24.5478 37.0312 26.0009 38.5312C26.0009 37.8516 26.0009 37.2578 26.0009 36.6641C26.0009 35.9219 25.9931 35.1875 26.0009 34.4453C26.0009 34.0703 26.2197 33.8828 26.5791 33.8516C26.7431 33.8359 26.915 33.8359 27.0869 33.8359C28.2509 33.8359 29.415 33.8359 30.5634 33.8359C29.1494 32.4297 27.7431 31.0312 26.3447 29.625Z" fill="url(#paint0_linear_574_49383)"/>
<path d="M19.9609 8.69461C16.0781 8.69461 12.1953 8.69461 8.3125 8.69461C7.76563 8.69461 7.51562 8.4993 7.51562 8.06961C7.51562 7.71805 7.71094 7.48367 8.0625 7.42898C8.21875 7.40555 8.375 7.41336 8.53125 7.41336C16.1797 7.41336 23.8359 7.41336 31.4844 7.41336C31.6406 7.41336 31.7969 7.40555 31.9531 7.42898C32.2891 7.46805 32.5078 7.74148 32.5 8.10867C32.4922 8.41336 32.2578 8.66336 31.9375 8.69461C31.8125 8.71023 31.6797 8.70242 31.5469 8.70242C27.6797 8.69461 23.8203 8.69461 19.9609 8.69461Z" fill="url(#paint1_linear_574_49383)"/>
<path d="M20.0013 15.375C23.9388 15.375 27.8763 15.375 31.8138 15.375C32.181 15.375 32.4544 15.5703 32.4935 15.8672C32.5403 16.2422 32.3216 16.5469 31.931 16.6172C31.845 16.6328 31.7513 16.625 31.6575 16.625C23.8841 16.625 16.1184 16.625 8.34501 16.625C7.79032 16.625 7.48563 16.3672 7.50907 15.9375C7.5247 15.6016 7.78251 15.3594 8.11845 15.3594C12.0794 15.3594 16.0481 15.3594 20.0091 15.3594C20.0013 15.375 20.0013 15.375 20.0013 15.375Z" fill="url(#paint2_linear_574_49383)"/>
<path d="M20.0009 11.3906C23.8369 11.3906 27.665 11.3906 31.5009 11.3906C31.6416 11.3906 31.79 11.3828 31.9306 11.3984C32.2822 11.4375 32.4619 11.6484 32.4931 11.9844C32.5166 12.2891 32.3838 12.5156 32.0713 12.5938C31.8838 12.6406 31.6884 12.6641 31.5009 12.6641C23.8369 12.6641 16.165 12.6641 8.50094 12.6641C8.33688 12.6641 8.15719 12.6641 8.00094 12.625C7.67282 12.5469 7.49313 12.3281 7.50875 11.9766C7.52438 11.6406 7.76657 11.4141 8.11813 11.3906C8.25875 11.3828 8.40719 11.3828 8.54782 11.3828C12.3603 11.3906 16.1806 11.3906 20.0009 11.3906Z" fill="url(#paint3_linear_574_49383)"/>
<path d="M16.0781 27.6877C16.1328 25.6721 17.8828 23.9689 19.8594 23.9533C20.3359 23.9455 20.6094 24.1721 20.625 24.5393C20.6406 24.8908 20.3203 25.1877 19.875 25.2033C19.3594 25.2268 18.8906 25.3752 18.4687 25.6799C17.6719 26.2502 17.2969 27.0314 17.3359 28.008C17.3594 28.6643 17.1719 28.9924 16.75 29.008C16.3437 29.0236 16.125 28.7268 16.0703 28.0627C16.0703 27.9455 16.0781 27.8127 16.0781 27.6877Z" fill="url(#paint4_linear_574_49383)"/>
</g>
<defs>
<linearGradient id="paint0_linear_574_49383" x1="20.0075" y1="0.804687" x2="20.0075" y2="40.701" gradientUnits="userSpaceOnUse">
<stop stop-color="#1EAD2B"/>
<stop offset="1" stop-color="#219653"/>
</linearGradient>
<linearGradient id="paint1_linear_574_49383" x1="20.0079" y1="7.41211" x2="20.0079" y2="8.70437" gradientUnits="userSpaceOnUse">
<stop stop-color="#1EAD2B"/>
<stop offset="1" stop-color="#219653"/>
</linearGradient>
<linearGradient id="paint2_linear_574_49383" x1="20.0038" y1="15.3594" x2="20.0038" y2="16.627" gradientUnits="userSpaceOnUse">
<stop stop-color="#1EAD2B"/>
<stop offset="1" stop-color="#219653"/>
</linearGradient>
<linearGradient id="paint3_linear_574_49383" x1="20.0018" y1="11.3828" x2="20.0018" y2="12.6641" gradientUnits="userSpaceOnUse">
<stop stop-color="#1EAD2B"/>
<stop offset="1" stop-color="#219653"/>
</linearGradient>
<linearGradient id="paint4_linear_574_49383" x1="18.3479" y1="23.9531" x2="18.3479" y2="29.0086" gradientUnits="userSpaceOnUse">
<stop stop-color="#1EAD2B"/>
<stop offset="1" stop-color="#219653"/>
</linearGradient>
<clipPath id="clip0_574_49383">
<rect width="40" height="40" fill="white" transform="translate(0 0.75)"/>
</clipPath>
</defs>
</svg>
