<svg width="40" height="40" viewBox="0 0 40 40" fill="none" xmlns="http://www.w3.org/2000/svg">
<path d="M15.7961 31.445C15.2258 30.7653 14.6868 30.1246 14.1477 29.4684C13.5149 28.695 12.8586 27.9371 12.2727 27.1246C11.2258 25.6871 10.1711 24.234 9.20239 22.7418C8.23364 21.2575 7.44458 19.6637 6.87427 17.984C6.36645 16.4918 6.23364 14.9449 6.43677 13.3746C6.60083 12.1246 6.88208 10.9059 7.38208 9.74964C8.04614 8.21058 8.91333 6.80432 10.093 5.58557C10.8743 4.77307 11.7102 4.02307 12.6633 3.44495C13.5305 2.92151 14.4758 2.53089 15.3977 2.12464C16.3118 1.71839 17.2805 1.48401 18.2805 1.40589C19.0696 1.34339 19.8743 1.29651 20.6633 1.33557C21.4836 1.37464 22.3118 1.49182 23.1164 1.64807C24.3899 1.89026 25.5696 2.39026 26.6868 3.0387C27.8977 3.73401 29.0227 4.54651 29.9524 5.6012C30.8586 6.62464 31.6633 7.71839 32.2649 8.96057C32.7961 10.0543 33.1711 11.1871 33.4133 12.359C33.7649 14.0621 33.7805 15.7731 33.2961 17.4528C32.8899 18.859 32.3039 20.2106 31.5383 21.4606C30.5852 23.0075 29.6008 24.5387 28.5305 26.0153C27.5149 27.4215 26.3821 28.734 25.2961 30.0856C25.0071 30.445 24.6946 30.7965 24.3977 31.1481C24.3274 31.234 24.2883 31.3356 24.2102 31.4606C25.2336 31.6012 26.218 31.6871 27.1711 31.8903C28.4133 32.1559 29.6633 32.4528 30.8664 32.859C31.6164 33.1168 32.3586 33.5075 32.8118 34.2418C33.1164 34.7418 33.1164 35.234 32.8196 35.7262C32.4133 36.3981 31.7727 36.7653 31.0852 37.07C29.6946 37.6871 28.2102 37.984 26.7258 38.2184C25.5305 38.4059 24.3118 38.484 23.1086 38.57C22.093 38.6481 21.0696 38.7028 20.0461 38.7028C19.0149 38.7028 17.9758 38.6481 16.9446 38.5856C16.0305 38.5309 15.1165 38.445 14.2024 38.3356C12.5227 38.1325 10.8586 37.8668 9.28833 37.195C8.68677 36.9371 8.06958 36.6325 7.56958 36.2106C6.56177 35.3746 6.81177 34.2028 7.91333 33.4606C8.91333 32.7887 10.0383 32.445 11.1946 32.2184C12.6555 31.9293 14.1399 31.734 15.6086 31.4918C15.6711 31.5075 15.7102 31.484 15.7961 31.445ZM19.9836 2.4137C19.3352 2.49182 18.679 2.55432 18.0305 2.64026C16.5696 2.83557 15.2102 3.32776 13.929 4.04651C11.804 5.2262 10.1633 6.89807 8.99927 9.02307C8.18677 10.5075 7.7102 12.1012 7.54614 13.7887C7.37427 15.5934 7.7102 17.2887 8.4602 18.9137C9.19458 20.5075 10.0305 22.0543 11.054 23.484C11.9602 24.7575 12.843 26.0465 13.8196 27.2653C14.9133 28.6325 16.0852 29.9371 17.2493 31.2496C18.0618 32.1637 18.9133 33.0387 19.7493 33.9293C19.9133 34.109 20.0461 34.1559 20.2493 33.9371C21.4602 32.6168 22.718 31.3278 23.9133 29.9918C24.804 28.9996 25.6711 27.9762 26.4836 26.9137C27.4914 25.5934 28.4758 24.2575 29.3899 22.8746C30.3664 21.3903 31.2883 19.859 31.8743 18.1559C32.1477 17.3668 32.4289 16.5465 32.4993 15.7262C32.7024 13.3043 32.1399 11.0153 30.9758 8.89026C30.3352 7.71839 29.4758 6.71057 28.5149 5.78089C27.2883 4.60901 25.8586 3.76526 24.2883 3.19495C22.8977 2.70276 21.468 2.4137 19.9836 2.4137ZM20.4133 37.6246C21.8274 37.5153 23.6633 37.3981 25.4836 37.2262C27.0774 37.0778 28.6399 36.7731 30.1477 36.2184C30.6399 36.0387 31.1164 35.7887 31.5618 35.5075C32.0305 35.2106 32.0149 34.8043 31.5618 34.484C31.3743 34.3512 31.1711 34.234 30.9602 34.1403C29.468 33.4684 27.8899 33.1246 26.2805 32.8981C25.4524 32.7809 24.6008 32.7731 23.7805 32.6325C23.3118 32.5465 23.0461 32.695 22.7493 33.0231C22.0305 33.82 21.2727 34.5778 20.5227 35.3356C20.2102 35.6481 19.8821 35.6793 19.5852 35.3903C18.9211 34.734 18.304 34.0387 17.6399 33.3903C17.2493 33.0075 16.9993 32.5309 16.2258 32.6168C14.593 32.8043 12.9602 32.9528 11.3743 33.3668C10.3586 33.6325 9.32739 33.8981 8.4602 34.5465C8.03833 34.8668 8.0227 35.2418 8.47583 35.5075C9.03833 35.8356 9.61645 36.1481 10.2336 36.3512C11.9211 36.9137 13.6711 37.195 15.4368 37.3668C16.9368 37.5075 18.468 37.5231 20.4133 37.6246Z" fill="url(#paint0_linear_574_49773)"/>
<path d="M20.139 24.9844C14.3343 24.875 10.1937 20.5079 10.1 15.5079C9.98279 9.5391 14.3265 5.02348 19.85 5.0391C25.6547 5.05473 29.6781 9.38285 29.9437 14.6485C30.0844 17.4454 29.1 19.9219 27.139 21.9297C25.1937 23.9297 22.7797 24.9375 20.139 24.9844ZM11.2484 14.9844C11.1547 19.7891 15.2015 23.7969 19.975 23.8047C24.7875 23.8047 28.7328 19.9063 28.7875 15.1016C28.8422 10.1719 24.7953 6.23442 20.0453 6.21098C15.2172 6.18754 11.1781 10.1875 11.2484 14.9844Z" fill="url(#paint1_linear_574_49773)"/>
<path d="M19.9997 20.6094C18.4684 20.6094 16.9372 20.6094 15.3981 20.6094C14.6559 20.6094 14.4216 20.3828 14.4216 19.6484C14.4216 17.3828 14.3747 15.1172 14.445 12.8516C14.4684 12.0547 14.7575 11.2578 14.9216 10.4609C14.945 10.3437 14.9762 10.2344 15.0075 10.125C15.1794 9.52344 15.3356 9.41406 15.9684 9.41406C18.6716 9.41406 21.3747 9.41406 24.0778 9.41406C24.6794 9.41406 24.8434 9.51563 24.9919 10.0781C25.3278 11.3828 25.6716 12.6719 25.6169 14.0469C25.5466 15.9063 25.6012 17.7656 25.6012 19.6328C25.6012 20.375 25.3669 20.6094 24.6403 20.6094C23.0856 20.6094 21.5466 20.6094 19.9997 20.6094ZM21.8903 13.125C21.8747 13.1953 21.8591 13.2266 21.8591 13.25C21.8591 13.7422 21.8591 14.2422 21.8512 14.7344C21.8434 15.3594 21.5934 15.6094 20.9762 15.6094C20.2887 15.6094 19.6012 15.6172 18.9137 15.6094C18.4294 15.6016 18.1637 15.3281 18.1637 14.8438C18.1637 14.2734 18.1637 13.7109 18.1637 13.1406C17.2809 13.1406 16.4606 13.1406 15.6325 13.1406C15.6325 15.2422 15.6325 17.3047 15.6325 19.3906C18.5544 19.3906 21.4606 19.3906 24.3669 19.3906C24.3669 17.2891 24.3669 15.2188 24.3669 13.1328C23.5309 13.125 22.7184 13.125 21.8903 13.125ZM18.1481 10.6016C17.4997 10.6016 16.9059 10.5938 16.3122 10.6094C16.2106 10.6094 16.0544 10.7344 16.0231 10.8359C15.9216 11.1641 15.8669 11.5078 15.7887 11.875C16.5934 11.875 17.3669 11.875 18.1481 11.875C18.1481 11.4453 18.1481 11.0469 18.1481 10.6016ZM21.8669 11.8672C22.6794 11.8672 23.4528 11.8672 24.2419 11.8672C24.1559 11.5078 24.0934 11.1875 24.0075 10.8828C23.9841 10.7891 23.8903 10.6328 23.8278 10.625C23.1794 10.6094 22.5231 10.6172 21.8591 10.6172C21.8669 11.0625 21.8669 11.4531 21.8669 11.8672ZM20.6403 11.8906C20.6403 11.4453 20.6403 11.0469 20.6403 10.6328C20.2106 10.6328 19.8044 10.6328 19.3903 10.6328C19.3903 11.0703 19.3903 11.4766 19.3903 11.8906C19.82 11.8906 20.2184 11.8906 20.6403 11.8906ZM19.3747 14.375C19.7966 14.375 20.2106 14.375 20.6325 14.375C20.6325 13.9531 20.6325 13.5469 20.6325 13.1406C20.195 13.1406 19.7887 13.1406 19.3747 13.1406C19.3747 13.5625 19.3747 13.9453 19.3747 14.375Z" fill="url(#paint2_linear_574_49773)"/>
<path d="M22.2105 17.5391C22.4839 17.5391 22.7573 17.5391 23.023 17.5391C23.3823 17.5469 23.6323 17.7578 23.6558 18.0781C23.687 18.4375 23.4761 18.7031 23.0933 18.7266C22.4995 18.7578 21.898 18.75 21.3042 18.7266C20.937 18.7109 20.6792 18.3906 20.7026 18.0625C20.7261 17.7578 20.9839 17.5547 21.3589 17.5469C21.6401 17.5313 21.9214 17.5391 22.2105 17.5391Z" fill="url(#paint3_linear_574_49773)"/>
<defs>
<linearGradient id="paint0_linear_574_49773" x1="20.0075" y1="1.32129" x2="20.0075" y2="38.7028" gradientUnits="userSpaceOnUse">
<stop stop-color="#1EAD2B"/>
<stop offset="1" stop-color="#219653"/>
</linearGradient>
<linearGradient id="paint1_linear_574_49773" x1="20.0273" y1="5.03906" x2="20.0273" y2="24.9844" gradientUnits="userSpaceOnUse">
<stop stop-color="#1EAD2B"/>
<stop offset="1" stop-color="#219653"/>
</linearGradient>
<linearGradient id="paint2_linear_574_49773" x1="20.0144" y1="9.41406" x2="20.0144" y2="20.6094" gradientUnits="userSpaceOnUse">
<stop stop-color="#1EAD2B"/>
<stop offset="1" stop-color="#219653"/>
</linearGradient>
<linearGradient id="paint3_linear_574_49773" x1="22.18" y1="17.5371" x2="22.18" y2="18.7472" gradientUnits="userSpaceOnUse">
<stop stop-color="#1EAD2B"/>
<stop offset="1" stop-color="#219653"/>
</linearGradient>
</defs>
</svg>
