<svg width="40" height="40" fill="none" xmlns="http://www.w3.org/2000/svg">
    <g clip-path="url(#clip0_1156_22054)">
    <path d="M21.0985 30.2987C19.4188 30.2414 17.9071 29.1542 17.3472 27.4946L17.1792 26.8079L17.0672 26.3502L15.6115 20.2843L15.1636 18.5104L14.4357 15.4775C14.2117 14.4474 13.3159 13.7607 12.3081 13.7607H1.50194L0.494113 32.3587C0.382132 34.6477 1.89387 36.6506 4.07749 37.1084L23.1702 40.9424C25.5778 41.4574 27.9293 39.7979 28.4333 37.3373C28.4333 37.2228 28.4892 37.0512 28.4892 36.9367L29.2171 30.2987H21.0985V30.2987ZM23.1702 35.3344C21.9944 35.3344 21.0425 34.3616 21.0425 33.1599C21.0425 31.9582 21.9944 30.9853 23.1702 30.9853C24.346 30.9853 25.2978 31.9582 25.2978 33.1599C25.2978 34.3616 24.346 35.3344 23.1702 35.3344Z" fill="#1EAD2B"/>
    <path d="M31.7907 6.09324L30.8389 14.9058H20.7607C20.5927 14.9058 20.4247 15.0775 20.4247 15.2492C20.4247 15.3064 20.4247 15.3064 20.4247 15.3064L21.0966 18.1104C21.1526 18.2821 21.2646 18.3393 21.4325 18.3965H30.503L30.223 20.8H22.1604C21.9924 20.8 21.8245 20.9716 21.8245 21.1433V21.2005L22.4964 24.0045C22.5523 24.1762 22.6643 24.2907 22.8323 24.2907H29.8311L29.6071 26.8085H22.6083C22.1044 26.8085 21.6005 26.6369 21.2086 26.3507C20.8166 26.0646 20.5367 25.6641 20.3687 25.149L19.5849 21.83L19.4729 21.4294L17.9051 15.0203L17.7372 14.3908C17.5692 13.5897 17.2333 12.903 16.7294 12.2735C16.1135 11.4724 15.3296 10.9001 14.4338 10.5568C13.8179 10.3279 13.202 10.2134 12.5301 10.2706H1.66797L1.83594 7.12328C1.94792 4.8343 3.68362 3.00311 5.92323 2.83143L26.9756 1.00025C29.4391 0.771348 31.6228 2.65976 31.7907 5.17764C31.8467 5.46377 31.7907 5.74989 31.7907 6.09324Z" fill="#1EAD2B"/>
    <path d="M32.9675 35.392C34.1425 35.392 35.0951 34.4185 35.0951 33.2175C35.0951 32.0165 34.1425 31.043 32.9675 31.043C31.7924 31.043 30.8398 32.0165 30.8398 33.2175C30.8398 34.4185 31.7924 35.392 32.9675 35.392Z" fill="#1EAD2B"/>
    <path d="M29.6094 26.8086H37.336C37.616 26.8086 37.784 27.0375 37.728 27.2092L36.9441 30.0132C36.8881 30.1848 36.7201 30.2993 36.5522 30.2993H29.2734L29.6094 26.8086Z" fill="#1EAD2B"/>
    <path d="M39.185 21.2004L38.5691 24.0044C38.5131 24.1761 38.4011 24.2905 38.2332 24.2905H29.8906L30.2826 20.7998H38.9051C39.073 20.7998 39.241 20.9715 39.241 21.1432C39.185 21.1432 39.185 21.1432 39.185 21.2004Z" fill="#1EAD2B"/>
    </g>
    <defs>
    <clipPath id="clip0_1156_22054">
    <rect width="120" height="120" fill="white"/>
    </clipPath>
    </defs>
</svg>  