<svg width="18" height="18" viewBox="0 0 18 18" fill="none" xmlns="http://www.w3.org/2000/svg">
<path fill-rule="evenodd" clip-rule="evenodd" d="M5.83793 13.687C6.2425 13.687 6.64706 13.6905 7.05146 13.6861C7.50072 13.6812 7.61342 13.573 7.61687 13.1304C7.62221 12.459 7.62788 11.7873 7.6149 11.1161C7.60759 10.74 7.75077 10.5539 8.14145 10.5597C8.78465 10.5692 9.42809 10.5683 10.0714 10.56C10.4411 10.5552 10.583 10.7275 10.576 11.0892C10.5631 11.7604 10.5687 12.432 10.5739 13.1035C10.5774 13.5655 10.6972 13.6813 11.1625 13.6862C11.5478 13.6902 11.933 13.687 12.3183 13.687C12.3297 13.7323 12.3411 13.7776 12.3525 13.8229C12.271 13.9239 12.1977 14.033 12.1067 14.1245C11.2474 14.989 10.386 15.8514 9.52322 16.7125C9.14001 17.0949 8.98648 17.0952 8.60713 16.7163C7.7543 15.8646 6.90237 15.0121 6.0529 14.1572C5.9531 14.0567 5.87136 13.9381 5.78125 13.8279C5.80014 13.7809 5.81904 13.734 5.83793 13.687Z" fill="#F12730"/>
<path fill-rule="evenodd" clip-rule="evenodd" d="M12.3879 4.34216C12.0028 4.34216 11.6177 4.33799 11.2326 4.34323C10.7577 4.34969 10.6298 4.47677 10.6267 4.94916C10.6225 5.57571 10.6179 6.20234 10.6282 6.82865C10.6343 7.19597 10.466 7.3462 10.1131 7.34211C9.49245 7.33483 8.8717 7.34342 8.25095 7.339C7.81771 7.33598 7.71467 7.22731 7.71151 6.77202C7.70722 6.15914 7.71322 5.54625 7.70924 4.93336C7.70632 4.47611 7.58407 4.35002 7.1347 4.34347C6.71825 4.33742 6.30163 4.34224 5.78125 4.34224C5.89921 4.16214 5.95101 4.04644 6.03402 3.96199C6.93689 3.04356 7.84779 2.13307 8.7492 1.21317C9.00587 0.951159 9.23246 0.914664 9.50517 1.19369C10.4149 2.1244 11.3349 3.04487 12.2487 3.97157C12.32 4.0439 12.3733 4.13424 12.435 4.21623C12.4193 4.25821 12.4036 4.30019 12.3879 4.34216Z" fill="#F12730"/>
<path fill-rule="evenodd" clip-rule="evenodd" d="M4.24952 5.78027V12.4318C4.07097 12.2961 3.96099 12.2304 3.87276 12.1427C3.00402 11.2788 2.13787 10.4123 1.27326 9.54415C0.908631 9.178 0.909197 9.04018 1.27326 8.67476C2.12865 7.81653 2.9851 6.95927 3.84422 6.10476C3.94198 6.00763 4.05997 5.93079 4.24952 5.78027Z" fill="#F12730"/>
<path fill-rule="evenodd" clip-rule="evenodd" d="M13.75 12.2772V5.78027C13.8911 5.86817 13.9984 5.91183 14.0746 5.98616C14.9884 6.87694 15.896 7.77393 16.8092 8.66545C17.0507 8.90135 17.0688 9.13243 16.8264 9.37119C15.8976 10.2858 14.9679 11.1995 14.0357 12.1106C13.9814 12.1636 13.901 12.1907 13.75 12.2772Z" fill="#F12730"/>
</svg>
