<svg width="40" height="41" viewBox="0 0 40 41" fill="none" xmlns="http://www.w3.org/2000/svg">
<g clip-path="url(#clip0_574_49388)">
<path d="M20.2422 0.796875C20.6406 0.898438 21.0391 1 21.4375 1.10156C22.4766 1.38281 23.3047 2 24.0547 2.73438C25.0859 3.75 26.1172 4.77344 27.125 5.80469C27.3516 6.03906 27.5781 6.13281 27.9062 6.13281C31.7422 6.125 35.5703 6.125 39.4062 6.125C39.5625 6.125 39.7187 6.125 39.9062 6.125C39.9062 11.875 39.9062 17.5937 39.9062 23.3516C30.6484 23.3516 21.3984 23.3516 12.1094 23.3516C12.1016 23.2344 12.0859 23.125 12.0859 23.0156C12.0859 20.4844 12.0781 17.9453 12.0859 15.4141C12.0859 15.0625 12.0234 14.8672 11.625 14.8437C10.2891 14.7578 9.125 14.2187 7.99219 13.5391C7.67969 13.3516 7.19531 13.4453 6.78906 13.4375C6.75 13.4375 6.66406 13.6172 6.66406 13.7188C6.64844 14.1328 6.64062 14.5547 6.66406 14.9688C6.67969 15.2891 6.57812 15.3906 6.25 15.3906C4.35156 15.3594 2.45312 15.3594 0.554687 15.3594C0.382812 15.3594 0.21875 15.375 0.046875 15.375C0.046875 10.5156 0.046875 5.65625 0.046875 0.796875C2.25781 0.796875 4.46875 0.796875 6.67187 0.796875C6.66406 1.13281 6.66406 1.46875 6.64844 1.80469C6.63281 2.03906 6.75 2.15625 6.96875 2.13281C7.41406 2.08594 7.89062 2.10156 8.28906 1.9375C9.22656 1.54687 10.0937 0.96875 11.125 0.796875C14.1641 0.796875 17.2031 0.796875 20.2422 0.796875ZM18.4766 4.57812C18.9687 5.04688 19.4219 5.49219 19.8828 5.92188C19.9922 6.02344 20.1562 6.13281 20.3047 6.13281C21.9297 6.15625 23.5547 6.16406 25.1719 6.17969C25.3047 6.17969 25.4375 6.15625 25.6406 6.13281C25.5312 6 25.4766 5.9375 25.4141 5.875C24.7422 5.1875 24.0703 4.5 23.4062 3.8125C22.3047 2.67188 20.9922 2.07031 19.3672 2.09375C16.7187 2.14062 14.0703 2.10156 11.4141 2.11719C11.0781 2.11719 10.7266 2.21094 10.4062 2.33594C10.0078 2.48437 9.63281 2.6875 9.25781 2.89844C8.59375 3.25 7.89062 3.42188 7.13281 3.38281C6.65625 3.35938 6.65625 3.35938 6.65625 3.85938C6.65625 6.48438 6.65625 9.10938 6.65625 11.7344C6.65625 11.875 6.67187 12.0078 6.67969 12.1719C7.03125 12.1719 7.34375 12.2031 7.64844 12.1641C8.14062 12.1016 8.50781 12.3281 8.88281 12.5859C9.75 13.1719 10.6953 13.5312 11.75 13.6172C12.0078 13.6406 12.0937 13.5547 12.0859 13.2969C12.0703 12.4141 12.0703 11.5312 12.0859 10.6484C12.0859 10.3984 11.9687 10.3125 11.7578 10.2031C11.2734 9.95312 10.8203 9.64062 10.3281 9.34375C10.6328 8.97656 10.875 8.67188 11.125 8.36719C11.4922 8.60938 11.7891 8.88281 12.1328 9.03906C13.6406 9.70312 15.0234 9.49219 16.2422 8.35938C16.3984 8.21875 16.5156 8.1875 16.6562 8.375C16.7266 8.46875 16.8203 8.53906 16.9062 8.61719C18.0391 9.77344 19.1719 10.9297 20.3125 12.0781C20.6328 12.3984 21.0547 12.5625 21.5156 12.4766C22.0937 12.375 22.5312 12.0391 22.6797 11.4609C22.8281 10.875 22.5937 10.3828 22.1719 9.95312C20.6562 8.4375 19.1641 6.92188 17.6562 5.39062C17.9062 5.14062 18.1875 4.85938 18.4766 4.57812ZM14.7344 17.2812C14.7344 17.1953 14.7344 17.0625 14.7344 16.9375C14.7344 15.6016 14.7266 14.2578 14.7344 12.9219C14.7422 12 14.5859 12.1719 15.5156 12.125C16.3516 12.0859 17.0391 11.75 17.5156 11.0469C17.1641 10.6719 16.8516 10.3125 16.5078 9.98438C16.4375 9.91406 16.25 9.88281 16.1797 9.92969C15.4062 10.4297 14.5547 10.625 13.6484 10.6016C13.3828 10.5938 13.2734 10.6875 13.2812 10.9609C13.3125 11.5156 13.3437 12.0781 13.3359 12.6328C13.3281 13.7188 13.2969 14.8125 13.2891 15.8984C13.2812 16.8672 13.2969 17.8438 13.3047 18.8125C13.3047 19.9141 13.3047 21.0078 13.3047 22.1172C21.7656 22.1172 30.2031 22.1172 38.6641 22.1172C38.6641 21.9531 38.6641 21.8203 38.6641 21.6953C38.6641 17.0938 38.6562 12.4922 38.6719 7.89844C38.6719 7.49219 38.5547 7.40625 38.1719 7.40625C32.75 7.42188 27.3359 7.41406 21.9141 7.41406C21.7812 7.41406 21.6406 7.42969 21.3984 7.4375C21.7578 7.80469 22.0625 8.07813 22.3203 8.39844C22.6172 8.78125 22.9766 8.85938 23.4375 8.85938C26.7891 8.84375 30.1406 8.85156 33.4922 8.84375C33.8203 8.84375 33.9922 8.90625 33.9297 9.27344C33.9219 9.33594 33.9297 9.40625 33.9297 9.46875C33.9219 10.8594 35.0625 12.1172 36.4375 12.1484C36.6953 12.1562 36.9453 12.1719 37.2422 12.1875C37.2422 13.9375 37.2422 15.6562 37.2422 17.4141C36.2812 17.3047 35.4219 17.5156 34.7187 18.1953C34 18.8828 33.8672 19.7812 33.9375 20.75C33.7344 20.75 33.5937 20.75 33.4531 20.75C28.4766 20.75 23.5 20.75 18.5234 20.75C18.0234 20.75 18.0312 20.75 18.0625 20.25C18.1328 19.1797 17.4766 18 16.375 17.6406C15.8828 17.4531 15.3359 17.3984 14.7344 17.2812ZM23.6094 12.5156C24.3047 11.8516 25.0859 11.5234 26.0078 11.5C26.9609 11.4766 27.8047 11.8203 28.4062 12.4922C29.5937 13.8203 29.7734 15.3047 28.6172 16.8672C27.7266 18.0703 26.3047 18.4375 24.8047 17.8906C24.0703 17.625 23.5 17.0938 23.125 16.4141C22.5234 15.3203 22.6328 14.1953 23.2187 13.0156C23.0469 13.1094 22.9687 13.1406 22.8984 13.1875C21.7578 13.9219 20.6484 13.9062 19.5937 13.0156C19.1875 12.6719 18.8125 12.3047 18.4062 11.9375C18.2812 12.0703 18.1562 12.1953 18.0312 12.3281C17.5312 12.8437 16.875 13.0703 16.2266 13.3203C16.1328 13.3516 16.0234 13.4766 16.0156 13.5703C15.9766 14.3047 15.9766 15.0391 15.9453 15.7812C15.9297 16.0625 16.0391 16.1875 16.3125 16.2656C17.7969 16.7266 18.8203 17.6484 19.1875 19.2031C19.25 19.4609 19.4219 19.4609 19.625 19.4609C23.875 19.4609 28.125 19.4531 32.375 19.4688C32.6641 19.4688 32.7734 19.3828 32.8516 19.1016C33.2734 17.6172 34.25 16.6797 35.7266 16.2656C35.9687 16.1953 36.0391 16.0938 36.0391 15.8672C36.0312 15.125 36.0312 14.3828 36.0391 13.6484C36.0469 13.4219 35.9609 13.3281 35.75 13.2734C34.2109 12.8828 33.2656 11.8906 32.8437 10.3828C32.7812 10.1562 32.7031 10.0547 32.4531 10.0547C29.6719 10.0625 26.8906 10.0625 24.1094 10.0547C23.7969 10.0547 23.7891 10.1875 23.8281 10.4453C23.875 10.7812 23.9219 11.1328 23.8906 11.4687C23.8437 11.7969 23.7187 12.125 23.6094 12.5156ZM1.375 2.09375C1.35937 2.20312 1.34375 2.26562 1.34375 2.32812C1.34375 6.15625 1.34375 9.99219 1.33594 13.8203C1.33594 14.0859 1.4375 14.1484 1.67969 14.1484C2.85156 14.1406 4.01562 14.1484 5.1875 14.1406C5.25781 14.1406 5.33594 14.1172 5.4375 14.1016C5.4375 13.9531 5.4375 13.8281 5.4375 13.7031C5.42969 12.7734 5.42969 11.8438 5.42187 10.9141C5.40625 9.60156 5.375 8.29688 5.375 6.98438C5.375 5.76563 5.41406 4.55469 5.42969 3.33594C5.4375 3.02344 5.42969 2.71094 5.4375 2.39844C5.4375 2.20312 5.375 2.07812 5.14844 2.08594C3.91406 2.10156 2.66406 2.09375 1.375 2.09375ZM23.9609 14.7422C23.9609 15.8906 24.8359 16.8281 26.0391 16.8047C26.8516 16.7891 28.0625 16.1484 28.0391 14.7656C28.0156 13.5547 27.1562 12.7422 26.0156 12.7187C24.8906 12.7031 23.9609 13.5938 23.9609 14.7422Z" fill="url(#paint0_linear_574_49388)"/>
<path d="M33.3677 29.6646C33.3677 28.9615 33.3833 28.3755 33.3599 27.7818C33.3521 27.4849 33.4536 27.4068 33.7427 27.4146C35.688 27.4224 37.6411 27.4224 39.5864 27.4146C39.8052 27.4146 39.9458 27.4302 39.9458 27.7193C39.938 31.9693 39.938 36.2115 39.938 40.4615C39.938 40.524 39.9224 40.5865 39.9067 40.6646C37.7349 40.6646 35.5864 40.6646 33.3833 40.6646C33.3677 40.3521 33.3521 40.0396 33.3364 39.6646C32.7661 39.8755 32.2114 40.063 31.6802 40.2974C31.1021 40.5474 30.5161 40.688 29.8911 40.688C27.0317 40.688 24.1724 40.6724 21.3208 40.6958C20.2583 40.7036 19.3286 40.4146 18.4458 39.8365C17.5239 39.2271 16.5474 38.6958 15.6021 38.1255C14.3442 37.3677 13.1021 36.6021 11.8442 35.8521C10.9067 35.2974 9.95362 34.7661 9.01612 34.2036C8.20362 33.7193 7.39112 33.2271 6.60205 32.6958C5.60987 32.0318 5.34424 30.3365 6.03174 29.2974C6.86768 28.0318 8.43018 27.688 9.71143 28.5083C10.5239 29.024 11.3989 29.438 12.2505 29.8911C13.4614 30.5396 14.6724 31.188 15.8911 31.8365C16.0161 31.899 16.1411 31.9536 16.2974 32.024C16.4224 31.8443 16.5552 31.688 16.6489 31.5161C17.0474 30.8052 17.7349 30.5083 18.4614 30.2974C19.6489 29.9615 20.8442 29.6568 22.0396 29.3443C23.4771 28.9615 24.9067 28.4927 26.3677 28.2349C27.4536 28.0474 28.5864 28.1333 29.7036 28.1177C30.0083 28.1099 30.3208 28.1802 30.6255 28.2271C31.4458 28.3521 32.0396 28.9302 32.7427 29.2818C32.9302 29.3755 33.0942 29.5005 33.3677 29.6646ZM26.7739 33.4771C26.2505 33.6255 25.7974 33.7661 25.3442 33.8911C23.5317 34.3755 21.7114 34.8365 19.9067 35.3521C18.2817 35.813 16.8052 35.1724 16.2974 33.6099C16.2583 33.4927 16.1489 33.3677 16.0396 33.3052C15.3521 32.9224 14.6646 32.5552 13.9692 32.1802C12.2505 31.2583 10.5396 30.3365 8.8208 29.4224C8.18018 29.0865 7.30518 29.399 7.02393 30.063C6.7583 30.688 6.81299 31.4693 7.79737 32.0161C9.0083 32.688 10.1802 33.4224 11.3755 34.1333C12.938 35.0708 14.4927 36.0083 16.0552 36.9536C17.0474 37.5474 18.0396 38.1333 19.0161 38.7505C19.7817 39.2349 20.5786 39.4458 21.4927 39.438C24.3364 39.3911 27.1802 39.4224 30.0317 39.4224C30.2114 39.4224 30.4067 39.4302 30.5708 39.3677C31.438 39.0552 32.3052 38.7349 33.1567 38.3911C33.2583 38.3521 33.3677 38.1568 33.3677 38.0396C33.3833 35.7896 33.3755 33.5474 33.3677 31.2974C33.3677 31.188 33.2974 31.0396 33.2114 30.9849C32.7349 30.688 32.2427 30.4146 31.7661 30.1255C31.1177 29.7271 30.4849 29.3286 29.6724 29.3208C27.9927 29.313 26.3364 29.3599 24.7114 29.9146C23.3521 30.3755 21.938 30.6646 20.5474 31.0318C19.8286 31.2193 19.1021 31.3911 18.3989 31.6255C17.3755 31.9771 17.1567 33.2505 17.9536 33.9615C18.4614 34.4146 19.0552 34.2818 19.6099 34.1411C21.0161 33.7896 22.4067 33.3911 23.813 33.0161C24.6802 32.7818 25.5474 32.5474 26.438 32.3052C26.5474 32.7115 26.6489 33.0786 26.7739 33.4771ZM34.6411 39.3911C35.9692 39.3911 37.2974 39.3911 38.6724 39.3911C38.6724 39.2115 38.6724 39.0552 38.6724 38.9068C38.6724 36.3443 38.6724 33.7896 38.6724 31.2271C38.6724 30.4849 38.6724 29.7427 38.6724 29.0083C38.6724 28.813 38.6333 28.688 38.3989 28.688C37.2192 28.6958 36.0317 28.688 34.8521 28.7036C34.7583 28.7036 34.6021 28.8833 34.5942 28.9771C34.5708 29.8052 34.5708 30.6333 34.5864 31.4615C34.5942 32.5708 34.6333 33.688 34.6411 34.7974C34.6489 36.3208 34.6411 37.8365 34.6411 39.3911Z" fill="url(#paint1_linear_574_49388)"/>
</g>
<defs>
<linearGradient id="paint0_linear_574_49388" x1="19.9766" y1="0.796875" x2="19.9766" y2="23.3516" gradientUnits="userSpaceOnUse">
<stop stop-color="#1EAD2B"/>
<stop offset="1" stop-color="#219653"/>
</linearGradient>
<linearGradient id="paint1_linear_574_49388" x1="22.7971" y1="27.4141" x2="22.7971" y2="40.696" gradientUnits="userSpaceOnUse">
<stop stop-color="#1EAD2B"/>
<stop offset="1" stop-color="#219653"/>
</linearGradient>
<clipPath id="clip0_574_49388">
<rect width="40" height="40" fill="white" transform="translate(0 0.75)"/>
</clipPath>
</defs>
</svg>
