<svg width="40" height="41" viewBox="0 0 40 41" fill="none" xmlns="http://www.w3.org/2000/svg">
<path d="M10.0703 24.4695C10.5781 24.2664 11.0703 24.0711 11.5625 23.8758C11.9922 23.7117 12.2969 23.7898 12.4453 24.1492C12.5078 24.3054 12.5078 24.5008 12.4844 24.6726C12.1953 26.7742 11.8906 28.8679 11.6016 30.9617C11.5 31.6804 11.4219 32.3992 11.3359 33.1179C11.2344 33.907 10.9375 34.0867 10.2188 33.7586C7.5 32.5164 4.78125 31.282 2.0625 30.0242C1.78125 29.8992 1.40625 29.7898 1.40625 29.3914C1.40625 28.9851 1.73438 28.8289 2.07813 28.6961C2.54688 28.5164 3 28.2976 3.48437 28.0867C3.24219 27.4304 2.98437 26.8054 2.78125 26.157C2.26562 24.5008 1.99219 22.8133 1.96094 21.0633C1.91406 18.4383 2.41406 15.9383 3.45313 13.5398C4.29688 11.5711 5.46094 9.80545 6.95312 8.26638C9.23438 5.90701 11.9531 4.25857 15.1094 3.36013C18.2109 2.47732 21.3359 2.3992 24.4531 3.25857C25.6719 3.59451 26.8359 4.11013 28.0156 4.57107C28.4766 4.75076 28.5859 5.07107 28.3672 5.50857C27.4688 7.30545 26.5703 9.09451 25.6562 10.8758C25.4062 11.3679 25.1328 11.4461 24.6328 11.2039C22.6484 10.2273 20.5625 9.95388 18.3906 10.2586C16.6406 10.5008 15.0547 11.1804 13.6406 12.2429C11.3438 13.9617 10 16.2664 9.5 19.0711C9.1875 20.7898 9.42969 23.032 10.0703 24.4695ZM27.0547 5.44607C26.6953 5.29763 26.375 5.15701 26.0547 5.03201C23.3203 3.98513 20.5078 3.66482 17.6172 4.0867C13.5859 4.67263 10.1953 6.49295 7.45313 9.51638C5.52344 11.6492 4.25 14.1336 3.58594 16.9304C3.05469 19.1648 3.00781 21.4226 3.39063 23.6804C3.63281 25.1258 4.0625 26.5164 4.71094 27.8445C5.03906 28.5086 4.89063 28.8289 4.19531 29.1023C3.99219 29.1804 3.78906 29.2742 3.48437 29.3992C5.78906 30.4539 7.98438 31.4617 10.2188 32.4929C10.5391 30.0945 10.8516 27.7429 11.1797 25.3211C10.8281 25.4617 10.5469 25.5789 10.2578 25.6883C9.53125 25.9773 9.36719 25.9148 9.0625 25.1961C8.22656 23.2273 7.98438 21.1883 8.30469 19.0789C8.82031 15.6648 10.5156 12.9539 13.3438 10.9929C15.3125 9.63357 17.5156 8.96951 19.9141 8.94607C21.5156 8.93045 23.0469 9.25857 24.5312 9.84451C24.625 9.88357 24.8359 9.84451 24.8672 9.7742C25.6016 8.35232 26.3125 6.93045 27.0547 5.44607Z" fill="url(#paint0_linear_574_49393)"/>
<path d="M29.9697 17.0718C29.4619 17.2749 28.9853 17.478 28.501 17.6577C27.8213 17.9077 27.4619 17.5874 27.5556 16.8765C27.8525 14.6811 28.1338 12.4936 28.4306 10.2983C28.5244 9.57958 28.626 8.86083 28.7353 8.14989C28.8056 7.66552 29.1806 7.4702 29.6181 7.67333C31.6885 8.62645 33.751 9.58739 35.8135 10.5405C36.5791 10.8921 37.3447 11.2436 38.1103 11.5874C38.3916 11.7124 38.6181 11.8608 38.5947 12.2124C38.5713 12.564 38.3447 12.7202 38.04 12.8374C37.54 13.0327 37.0478 13.2593 36.5713 13.4546C36.8916 14.439 37.251 15.3686 37.4931 16.3296C38.1181 18.7671 38.2041 21.2358 37.7978 23.7358C37.4306 26.0015 36.6494 28.103 35.4853 30.0718C34.6338 31.5171 33.5791 32.8296 32.3447 33.9624C30.9072 35.2827 29.3369 36.4389 27.5088 37.1733C26.415 37.6108 25.3135 38.0561 24.1806 38.3608C23.2822 38.603 22.3369 38.6655 21.4072 38.7749C19.6728 38.9858 17.9541 38.8061 16.2744 38.4389C15.0556 38.1733 13.8916 37.6811 12.7041 37.2749C12.4072 37.1733 12.1181 37.0093 11.8369 36.8608C11.5947 36.7358 11.4619 36.5405 11.5869 36.2671C11.8213 35.7593 12.0556 35.2514 12.3056 34.7514C12.9931 33.3921 13.6806 32.0405 14.376 30.689C14.6181 30.2202 14.8838 30.1343 15.3525 30.3608C17.0322 31.1655 18.7978 31.5249 20.6494 31.4077C22.2978 31.3061 23.8291 30.8296 25.2744 30.0171C26.751 29.189 27.9306 28.0718 28.8525 26.6811C29.7666 25.2983 30.3525 23.7749 30.54 22.1108C30.7431 20.3921 30.6103 18.7358 29.9697 17.0718ZM15.1963 31.6421C14.9072 32.1889 14.6103 32.7514 14.3213 33.3218C13.9072 34.1343 13.4931 34.9546 13.0869 35.7749C13.001 35.9468 12.9306 36.1421 13.2041 36.2436C13.8213 36.4702 14.4228 36.7358 15.0556 36.9233C16.2041 37.2593 17.3603 37.5796 18.5713 37.5796C19.7978 37.5796 21.04 37.6655 22.251 37.5014C23.4385 37.3452 24.6025 36.9624 25.7666 36.6186C27.1728 36.2046 28.4541 35.5014 29.6338 34.6499C30.5088 34.0249 31.3369 33.3061 32.0791 32.5249C32.8838 31.6811 33.6416 30.7671 34.2744 29.7905C35.3838 28.0952 36.1025 26.228 36.5166 24.2358C36.876 22.5171 36.9541 20.7983 36.7822 19.064C36.5947 17.103 36.0713 15.2358 35.2119 13.4624C35.0244 13.0796 35.1494 12.7593 35.5478 12.5718C35.8369 12.439 36.1338 12.314 36.5166 12.1421C34.2431 11.103 32.04 10.0952 29.8135 9.07177C29.4931 11.4702 29.1806 13.8061 28.8603 16.2046C29.3135 16.0171 29.665 15.8765 30.0088 15.7436C30.4228 15.5796 30.7119 15.6968 30.8838 16.103C31.04 16.5015 31.2041 16.8921 31.3291 17.2983C32.1025 19.7905 32.0244 22.2671 31.1728 24.7202C30.5791 26.4233 29.6181 27.8999 28.3369 29.1733C27.2978 30.2046 26.1025 31.0171 24.7666 31.5952C23.7275 32.0483 22.6338 32.3218 21.4931 32.4702C20.2197 32.6343 18.9619 32.603 17.7197 32.3218C16.8681 32.1421 16.0635 31.8843 15.1963 31.6421Z" fill="url(#paint1_linear_574_49393)"/>
<defs>
<linearGradient id="paint0_linear_574_49393" x1="14.941" y1="2.6543" x2="14.941" y2="33.9143" gradientUnits="userSpaceOnUse">
<stop stop-color="#1EAD2B"/>
<stop offset="1" stop-color="#219653"/>
</linearGradient>
<linearGradient id="paint1_linear_574_49393" x1="25.0677" y1="7.59375" x2="25.0677" y2="38.8648" gradientUnits="userSpaceOnUse">
<stop stop-color="#1EAD2B"/>
<stop offset="1" stop-color="#219653"/>
</linearGradient>
</defs>
</svg>
