<svg width="60" height="60" viewBox="0 0 60 60" fill="none" xmlns="http://www.w3.org/2000/svg">
<g clip-path="url(#clip0_574_49898)">
<path d="M59.9064 34.4648C59.8713 34.582 59.801 34.6992 59.7893 34.8281C59.7307 37.4648 59.2502 40.0078 58.383 42.4922C57.5979 44.7773 56.508 46.8984 55.1369 48.8789C53.6135 51.0703 51.7853 52.9688 49.6643 54.5859C46.9221 56.6836 43.8869 58.1484 40.5705 59.0625C37.7111 59.8477 34.8049 60.0703 31.8752 59.8359C28.1955 59.543 24.7268 58.4883 21.4807 56.6953C18.8908 55.2656 16.6057 53.4609 14.6838 51.2461C13.6408 50.0391 12.7502 48.6914 11.8361 47.3906C11.6369 47.0977 11.4611 46.957 11.1096 46.9688C9.57441 46.9805 8.02754 46.9805 6.49238 46.9805C5.57832 46.9805 5.0627 46.6289 5.07441 46.0313C5.08613 45.3984 5.55488 45.0469 6.45723 45.0469C8.22676 45.0352 10.008 45.0352 11.7775 45.0469C12.2932 45.0469 12.6916 45.2227 12.9729 45.7148C14.5432 48.4688 16.5236 50.8594 19.0197 52.8281C21.9846 55.1602 25.3127 56.7188 29.0158 57.5156C33.6682 58.5117 38.215 58.0781 42.633 56.4492C45.1643 55.5117 47.4611 54.1172 49.5236 52.3477C51.7385 50.4375 53.5783 48.2227 54.9846 45.6445C56.5432 42.7852 57.5275 39.7734 57.8557 36.5391C58.1369 33.6797 57.9494 30.8672 57.2346 28.0664C56.3557 24.6211 54.8088 21.5039 52.5588 18.7852C49.84 15.5039 46.4416 13.0781 42.4221 11.5664C39.3049 10.4062 36.0939 9.89063 32.7775 10.0664C29.9533 10.2188 27.2463 10.8516 24.6213 11.9414C21.6564 13.1719 19.0666 14.9531 16.8283 17.2031C15.34 18.6914 14.051 20.3906 13.0666 22.2773C12.7971 22.8047 12.3986 23.0156 11.8596 23.0156C9.92598 23.0273 8.0041 23.0273 6.07051 23.0156C5.53145 23.0156 5.09785 22.582 5.08613 22.0664C5.07441 21.5508 5.48457 21.1641 6.08223 21.1523C7.67598 21.1406 9.28145 21.1172 10.8752 21.1641C11.3908 21.1758 11.6369 20.9766 11.9182 20.5898C13.0197 19.0898 14.0627 17.543 15.2932 16.1602C16.6994 14.5781 18.3752 13.2891 20.1799 12.1523C22.3713 10.7695 24.7033 9.69141 27.1994 9.07031C28.9221 8.63672 30.7033 8.4375 32.4729 8.20312C32.9299 8.14453 33.0588 8.02734 33.0588 7.58203C33.0354 5.77734 33.0471 3.96094 33.0471 2.09766C32.7893 2.08594 32.5783 2.0625 32.3791 2.0625C30.3518 2.0625 28.3244 2.0625 26.2971 2.0625C25.4885 2.0625 25.0197 1.59375 25.09 0.914063C25.1486 0.339844 25.6408 0.292969 26.0275 0.105469C31.3713 0.105469 36.715 0.105469 42.0588 0.105469C42.3283 0.351562 42.7268 0.550781 42.8439 0.855469C43.0783 1.51172 42.5627 2.0625 41.7775 2.0625C39.715 2.07422 37.6525 2.0625 35.5783 2.0625C35.3674 2.0625 35.1682 2.08594 34.9572 2.09766C34.9572 4.16016 34.9572 6.15234 34.9572 8.15625C37.4064 8.29688 39.7619 8.67188 42.0588 9.44531C44.3322 10.207 46.465 11.2617 48.5627 12.6445C49.3596 11.8008 50.1213 10.9688 50.9182 10.1719C51.3869 9.70313 51.926 9.69141 52.3596 10.125C54.176 11.9297 55.9924 13.7344 57.8088 15.5625C58.3713 16.125 58.3596 16.6758 57.7853 17.2383C57.0119 18 56.2268 18.75 55.4533 19.5117C55.84 20.1445 56.1916 20.6719 56.4963 21.2344C58.2307 24.3633 59.3674 27.6914 59.7307 31.2656C59.7893 31.875 59.883 32.4844 59.9533 33.0938C59.9064 33.5273 59.9064 33.9961 59.9064 34.4648ZM50.0158 13.7344C50.1682 13.8633 50.3205 13.9688 50.4494 14.0977C51.6447 15.3047 52.8283 16.5234 54.0236 17.7305C54.1057 17.8125 54.34 17.8828 54.3986 17.8359C54.9025 17.3555 55.3947 16.8516 55.7697 16.4648C54.3049 15 52.9103 13.6055 51.551 12.2344C51.0822 12.7148 50.5549 13.2188 50.0158 13.7344Z" fill="url(#paint0_linear_574_49898)"/>
<path d="M55.8287 33.9258C55.981 45.0118 47.4615 54.5157 36.6099 55.7344C23.1099 57.2579 13.2896 47.1094 12.1997 36.504C10.8052 23.0391 20.9068 13.3829 31.5708 12.2344C44.3912 10.8633 55.8638 20.9415 55.8287 33.9258ZM14.0044 34.9336C14.6138 47.1446 25.0435 53.9063 33.0122 53.918C33.0122 52.9922 33.0122 52.0547 33.0122 51.1172C33.0122 50.461 33.3755 50.0508 33.9615 50.0391C34.5005 50.0274 34.8638 50.4375 34.8638 51.0821C34.8755 51.879 34.8638 52.6758 34.8638 53.4844C34.8638 53.754 34.8755 54.0469 35.2505 53.9883C36.4693 53.8008 37.7115 53.6602 38.9068 53.3555C41.6021 52.6875 44.0279 51.4688 46.2427 49.7579C47.9888 48.4102 49.4419 46.8165 50.649 45.0235C52.3716 42.4688 53.3677 39.6094 53.813 36.5743C53.8951 36.0586 53.8833 35.5196 53.9068 34.9688C53.7193 34.9571 53.6021 34.9336 53.4849 34.9336C52.313 34.9336 51.1412 34.9454 49.981 34.9219C49.3482 34.9102 49.0435 34.5938 49.0318 33.9961C49.0318 33.4454 49.3833 33.0821 49.981 33.0704C50.4732 33.0586 50.9537 33.0704 51.4458 33.0704C52.2544 33.0704 53.063 33.0704 53.9302 33.0704C53.5552 27.293 51.2349 22.5352 46.9458 18.8204C43.524 15.8555 39.481 14.2618 34.8521 14.0625C34.8521 15.1172 34.8638 16.0547 34.8521 16.9805C34.8404 17.6368 34.4185 18.0235 33.8326 17.9649C33.3638 17.918 33.024 17.4727 33.0122 16.8633C33.0005 15.9493 33.0122 15.0469 33.0122 14.0625C27.399 14.3555 22.7701 16.5821 19.0904 20.625C15.9263 24.1055 14.2036 28.254 14.0161 33.0704C15.0005 33.0704 15.8911 33.0704 16.7818 33.0704C17.5552 33.0704 17.9068 33.375 17.8951 34.0079C17.8833 34.6055 17.5201 34.9219 16.8052 34.9219C15.8677 34.9336 14.9419 34.9336 14.0044 34.9336Z" fill="url(#paint1_linear_574_49898)"/>
<path d="M5.03933 34.9336C3.75027 34.9336 2.47292 34.9336 1.18386 34.9336C0.457298 34.9336 0.0822977 34.582 0.0940165 33.9492C0.105735 33.3984 0.492454 33.0703 1.16042 33.0703C3.71511 33.0703 6.25808 33.0703 8.81276 33.0703C9.49245 33.0703 9.93776 33.4453 9.92604 33.9844C9.92604 34.5703 9.51589 34.9219 8.8362 34.9219C7.57058 34.9453 6.30495 34.9336 5.03933 34.9336Z" fill="url(#paint2_linear_574_49898)"/>
<path d="M6.56243 39.0469C7.67571 39.0469 8.789 39.0117 9.89056 39.0703C10.207 39.082 10.6406 39.3164 10.7812 39.5742C10.9218 39.8437 10.8867 40.3711 10.6992 40.582C10.4882 40.8281 10.0312 40.957 9.6679 40.957C7.54681 40.9922 5.42571 40.9805 3.2929 40.9687C2.76556 40.9687 2.27337 40.8281 2.13275 40.2187C1.96868 39.5273 2.39056 39.0469 3.17571 39.0352C4.30071 39.0352 5.42571 39.0469 6.56243 39.0469Z" fill="url(#paint3_linear_574_49898)"/>
<path d="M6.50417 28.957C5.39089 28.957 4.27761 28.957 3.17605 28.957C2.50808 28.957 2.12136 28.6289 2.10964 28.0664C2.09792 27.457 2.47292 27.1055 3.16433 27.1055C5.39089 27.0938 7.60573 27.0938 9.8323 27.1055C10.5354 27.1055 10.9456 27.4805 10.9339 28.0898C10.9221 28.6172 10.5003 28.957 9.84401 28.957C8.71901 28.957 7.61745 28.957 6.50417 28.957Z" fill="url(#paint4_linear_574_49898)"/>
<path d="M46.8399 26.0273C46.6993 26.332 46.6407 26.5429 46.5235 26.707C46.3946 26.8945 46.2188 27.0586 46.0547 27.2226C41.6836 31.5937 37.3243 35.9531 32.9532 40.3242C32.168 41.1093 31.7344 41.1211 30.961 40.3359C28.9219 38.2968 26.8829 36.2578 24.8555 34.2187C24.504 33.8671 24.1993 33.5039 24.504 32.9531C24.7852 32.4492 25.4297 32.2617 25.8751 32.6367C26.543 33.2109 27.1758 33.8437 27.8086 34.4648C29.086 35.7304 30.3516 36.9961 31.6055 38.2734C31.8868 38.5664 32.0743 38.6367 32.4024 38.3086C34.2774 36.3867 36.1641 34.4882 38.0626 32.5898C39.7032 30.9492 41.3555 29.332 43.0079 27.7031C43.7344 26.9765 44.4258 26.2148 45.1876 25.5351C45.4219 25.3359 45.879 25.207 46.1602 25.3007C46.4415 25.3828 46.6172 25.7812 46.8399 26.0273Z" fill="url(#paint5_linear_574_49898)"/>
</g>
<defs>
<linearGradient id="paint0_linear_574_49898" x1="32.5138" y1="0.105469" x2="32.5138" y2="59.9244" gradientUnits="userSpaceOnUse">
<stop stop-color="#1EAD2B"/>
<stop offset="1" stop-color="#219653"/>
</linearGradient>
<linearGradient id="paint1_linear_574_49898" x1="33.9505" y1="12.1094" x2="33.9505" y2="55.8868" gradientUnits="userSpaceOnUse">
<stop stop-color="#1EAD2B"/>
<stop offset="1" stop-color="#219653"/>
</linearGradient>
<linearGradient id="paint2_linear_574_49898" x1="5.01001" y1="33.0703" x2="5.01001" y2="34.9365" gradientUnits="userSpaceOnUse">
<stop stop-color="#1EAD2B"/>
<stop offset="1" stop-color="#219653"/>
</linearGradient>
<linearGradient id="paint3_linear_574_49898" x1="6.48239" y1="39.0352" x2="6.48239" y2="40.9805" gradientUnits="userSpaceOnUse">
<stop stop-color="#1EAD2B"/>
<stop offset="1" stop-color="#219653"/>
</linearGradient>
<linearGradient id="paint4_linear_574_49898" x1="6.52174" y1="27.0967" x2="6.52174" y2="28.957" gradientUnits="userSpaceOnUse">
<stop stop-color="#1EAD2B"/>
<stop offset="1" stop-color="#219653"/>
</linearGradient>
<linearGradient id="paint5_linear_574_49898" x1="35.6094" y1="25.2695" x2="35.6094" y2="40.9189" gradientUnits="userSpaceOnUse">
<stop stop-color="#1EAD2B"/>
<stop offset="1" stop-color="#219653"/>
</linearGradient>
<clipPath id="clip0_574_49898">
<rect width="60" height="60" fill="white"/>
</clipPath>
</defs>
</svg>
