<svg width="40" height="40" viewBox="0 0 40 40" fill="none" xmlns="http://www.w3.org/2000/svg">
<path d="M5 16.2034C5 16.3909 5 16.5549 5 16.7268C5 23.719 5 30.7112 5 37.7034C5 38.4534 4.8125 38.6409 4.05469 38.6409C3.40625 38.6409 2.75781 38.6487 2.10156 38.6409C1.53125 38.6331 1.30469 38.3987 1.30469 37.8362C1.30469 28.0237 1.30469 18.2112 1.30469 8.3987C1.30469 7.78933 1.41406 7.65651 2 7.45339C4.01562 6.76589 6.02344 6.07058 8.03906 5.37526C10.0234 4.68776 12.0078 4.00808 13.9922 3.32058C15.8047 2.69558 17.6016 2.03933 19.4219 1.43776C19.7266 1.3362 20.1172 1.32839 20.4219 1.42214C21.3828 1.7112 22.3125 2.07058 23.2656 2.39089C24.4922 2.80495 25.7344 3.19558 26.9531 3.61745C28.2812 4.07839 29.6016 4.57839 30.9297 5.03933C32.2734 5.50026 33.625 5.93776 34.9687 6.39089C35.9922 6.73464 37.0156 7.09401 38.0312 7.44558C38.6016 7.6487 38.6797 7.7737 38.6797 8.39089C38.6797 18.1487 38.6797 27.9143 38.6797 37.6721C38.6797 38.4456 38.4922 38.6331 37.7187 38.6331C37.0781 38.6331 36.4453 38.6174 35.8047 38.6409C35.2656 38.6565 34.9766 38.3049 34.9766 37.8128C34.9922 30.7815 34.9844 23.7503 34.9844 16.719C34.9844 16.5549 34.9844 16.3909 34.9844 16.1956C24.9922 16.2034 15.0312 16.2034 5 16.2034ZM37.4922 11.219C37.4922 10.3518 37.5 9.51589 37.4766 8.67214C37.4766 8.57839 37.2969 8.43776 37.1719 8.39089C36.0469 7.98464 34.9141 7.59401 33.7812 7.2112C32.3047 6.70339 30.8281 6.2112 29.3516 5.70339C27.5 5.06276 25.6562 4.41433 23.8125 3.7737C22.8203 3.42995 21.8281 3.06276 20.8281 2.74245C20.4766 2.63308 20.0469 2.48464 19.7266 2.57839C18.2422 3.03151 16.7812 3.55495 15.3125 4.06276C13.6328 4.6487 11.9531 5.25026 10.2734 5.82839C7.78906 6.68776 5.30469 7.53151 2.82031 8.37526C2.58594 8.45339 2.49219 8.57839 2.5 8.82839C2.51562 9.30495 2.50781 9.78932 2.50781 10.2737C2.50781 10.594 2.50781 10.9065 2.50781 11.2268C14.2031 11.219 25.8281 11.219 37.4922 11.219ZM34.9766 14.9612C34.9766 14.094 34.9766 13.2815 34.9766 12.4612C24.9766 12.4612 15.0078 12.4612 5.03125 12.4612C5.03125 13.3128 5.03125 14.1331 5.03125 14.9612C15.0312 14.9612 24.9922 14.9612 34.9766 14.9612ZM2.52344 12.4534C2.52344 20.8049 2.52344 29.1018 2.52344 37.4143C2.95312 37.4143 3.35937 37.4143 3.77344 37.4143C3.77344 29.0784 3.77344 20.7659 3.77344 12.4534C3.34375 12.4534 2.94531 12.4534 2.52344 12.4534ZM36.2187 12.4534C36.2187 20.8049 36.2187 29.1018 36.2187 37.4221C36.6484 37.4221 37.0547 37.4221 37.4687 37.4221C37.4687 29.0862 37.4687 20.7737 37.4687 12.4534C37.0391 12.4534 36.6406 12.4534 36.2187 12.4534Z" fill="url(#paint0_linear_574_49775)"/>
<path d="M14.4131 27.4688C14.4131 27.2578 14.4131 27.1016 14.4131 26.9531C14.4131 24.1094 14.4131 21.2578 14.4131 18.4141C14.4131 17.6641 14.5928 17.4844 15.3584 17.4844C18.4678 17.4844 21.5693 17.4844 24.6787 17.4844C25.3584 17.4844 25.5928 17.7266 25.5928 18.4375C25.5928 21.2578 25.5928 24.0781 25.5928 26.8984C25.5928 27.0703 25.5928 27.2344 25.5928 27.4531C25.749 27.4609 25.8897 27.4766 26.0225 27.4766C27.2178 27.4766 28.4131 27.4766 29.6084 27.4766C30.3584 27.4766 30.585 27.7031 30.585 28.4375C30.585 31.2734 30.585 34.1016 30.585 36.9375C30.585 37.0938 30.585 37.2422 30.585 37.4609C31.0537 37.4609 31.4912 37.4609 31.9209 37.4609C32.2959 37.4609 32.6787 37.4453 33.0537 37.4688C33.3897 37.4844 33.6865 37.7656 33.6943 38.0391C33.7022 38.3359 33.46 38.5859 33.1006 38.6406C32.9834 38.6563 32.8662 38.6563 32.749 38.6563C24.249 38.6563 15.749 38.6563 7.24904 38.6484C7.02248 38.6484 6.74904 38.6328 6.58498 38.5156C6.43654 38.4063 6.28811 38.1094 6.33498 37.9531C6.41311 37.6719 6.67092 37.4688 7.00686 37.4688C7.65529 37.4609 8.30373 37.4688 8.95998 37.4688C9.10061 37.4688 9.24123 37.4688 9.42873 37.4688C9.42873 37.2734 9.42873 37.125 9.42873 36.9688C9.42873 34.1094 9.42873 31.25 9.42873 28.3906C9.42873 27.7422 9.68654 27.4844 10.3428 27.4844C11.5381 27.4766 12.7334 27.4844 13.9287 27.4844C14.0694 27.4688 14.21 27.4688 14.4131 27.4688ZM15.624 18.6953C15.624 21.6406 15.624 24.5313 15.624 27.4375C18.5459 27.4375 21.4522 27.4375 24.3584 27.4375C24.3584 24.5078 24.3584 21.6094 24.3584 18.7031C23.5068 18.7031 22.6865 18.7031 21.835 18.7031C21.835 18.8906 21.835 19.0469 21.835 19.2031C21.835 20.4141 21.835 21.6172 21.835 22.8281C21.835 23.7344 21.1944 23.7813 20.71 23.4609C20.1865 23.1094 19.7256 23.1016 19.2334 23.4688C19.1475 23.5313 19.0537 23.5703 18.96 23.6094C18.6553 23.7422 18.2881 23.5625 18.21 23.2344C18.1709 23.0625 18.1475 22.875 18.1475 22.6953C18.1397 21.5 18.1475 20.3047 18.1475 19.1094C18.1475 18.9688 18.1319 18.8359 18.1319 18.6953C17.2803 18.6953 16.4678 18.6953 15.624 18.6953ZM10.6319 37.4219C13.5772 37.4219 16.4678 37.4219 19.374 37.4219C19.374 34.4922 19.374 31.5938 19.374 28.6875C18.5225 28.6875 17.7022 28.6875 16.8506 28.6875C16.8506 28.8594 16.8506 29.0078 16.8506 29.1484C16.8506 30.3438 16.8506 31.5391 16.8506 32.7344C16.8506 32.8984 16.8506 33.0781 16.7881 33.2188C16.5928 33.6406 16.2334 33.75 15.7569 33.4453C15.1865 33.0781 14.6865 33.125 14.1631 33.5C14.1006 33.5469 14.0225 33.5625 13.9522 33.5859C13.5928 33.7031 13.2647 33.5234 13.1944 33.1563C13.1631 32.9922 13.1631 32.8203 13.1631 32.6563C13.1631 31.4766 13.1631 30.2891 13.1631 29.1094C13.1631 28.9688 13.1553 28.8359 13.1475 28.6875C12.2881 28.6875 11.4678 28.6875 10.6319 28.6875C10.6319 31.6094 10.6319 34.5078 10.6319 37.4219ZM20.624 28.6797C20.624 31.625 20.624 34.5156 20.624 37.4219C23.5537 37.4219 26.4522 37.4219 29.3584 37.4219C29.3584 34.4922 29.3584 31.5859 29.3584 28.6875C28.5147 28.6875 27.6943 28.6875 26.8428 28.6875C26.8428 28.8516 26.8428 28.9922 26.8428 29.1328C26.8428 30.3438 26.8428 31.5469 26.8428 32.7578C26.8428 32.9219 26.8428 33.1016 26.7725 33.2422C26.5772 33.6563 26.2334 33.7734 25.7725 33.4688C25.1943 33.0859 24.6787 33.1328 24.1475 33.5156C24.085 33.5625 24.0068 33.5781 23.9365 33.5938C23.5928 33.7031 23.2725 33.5313 23.2022 33.1875C23.1631 33.0234 23.1631 32.8594 23.1631 32.6875C23.1631 31.4922 23.1631 30.2969 23.1631 29.1016C23.1631 28.9609 23.1475 28.8281 23.1475 28.6797C22.2725 28.6797 21.46 28.6797 20.624 28.6797ZM19.374 18.6953C19.374 19.8359 19.374 20.9375 19.374 21.9766C19.8037 21.9766 20.2022 21.9766 20.6162 21.9766C20.6162 20.9219 20.6162 19.8125 20.6162 18.6953C20.1944 18.6953 19.7959 18.6953 19.374 18.6953ZM15.6319 31.9609C15.6319 30.9141 15.6319 29.8047 15.6319 28.6875C15.2022 28.6875 14.7959 28.6875 14.3897 28.6875C14.3897 29.8203 14.3897 30.9219 14.3897 31.9609C14.8194 31.9609 15.21 31.9609 15.6319 31.9609ZM24.3584 28.6797C24.3584 29.8281 24.3584 30.9219 24.3584 31.9609C24.7881 31.9609 25.1943 31.9609 25.6084 31.9609C25.6084 30.9063 25.6084 29.7969 25.6084 28.6797C25.1865 28.6797 24.7881 28.6797 24.3584 28.6797Z" fill="url(#paint1_linear_574_49775)"/>
<path d="M20.0241 5.05487C21.2272 5.00018 22.446 6.00018 22.4538 7.47675C22.4538 8.93768 21.3054 9.93768 19.9929 9.91425C18.571 9.89081 17.5788 8.90643 17.5632 7.46893C17.5319 6.11737 18.5866 5.01581 20.0241 5.05487ZM19.985 8.74237C20.7429 8.74237 21.2741 8.23456 21.2819 7.508C21.2897 6.73456 20.7663 6.1955 20.0163 6.1955C19.2741 6.1955 18.7272 6.71893 18.7272 7.4455C18.7194 8.22675 19.2194 8.74237 19.985 8.74237Z" fill="url(#paint2_linear_574_49775)"/>
<defs>
<linearGradient id="paint0_linear_574_49775" x1="19.9922" y1="1.35645" x2="19.9922" y2="38.6444" gradientUnits="userSpaceOnUse">
<stop stop-color="#1EAD2B"/>
<stop offset="1" stop-color="#219653"/>
</linearGradient>
<linearGradient id="paint1_linear_574_49775" x1="20.0103" y1="17.4844" x2="20.0103" y2="38.6563" gradientUnits="userSpaceOnUse">
<stop stop-color="#1EAD2B"/>
<stop offset="1" stop-color="#219653"/>
</linearGradient>
<linearGradient id="paint2_linear_574_49775" x1="20.0081" y1="5.05273" x2="20.0081" y2="9.91465" gradientUnits="userSpaceOnUse">
<stop stop-color="#1EAD2B"/>
<stop offset="1" stop-color="#219653"/>
</linearGradient>
</defs>
</svg>
