<svg width="20" height="21" viewBox="0 0 20 21" fill="none" xmlns="http://www.w3.org/2000/svg">
<path d="M17.5 9.63105C17.5029 10.7365 17.2459 11.8271 16.75 12.8138C16.162 13.9962 15.2581 14.9908 14.1395 15.6861C13.021 16.3813 11.7319 16.7499 10.4167 16.7504C9.31678 16.7532 8.23176 16.495 7.25 15.9966L2.5 17.5879L4.08333 12.8138C3.58744 11.8271 3.33047 10.7365 3.33333 9.63105C3.33384 8.30917 3.70051 7.01353 4.39227 5.88927C5.08402 4.765 6.07355 3.85651 7.25 3.26555C8.23176 2.76714 9.31678 2.50886 10.4167 2.51174H10.8333C12.5703 2.60806 14.2109 3.34492 15.4409 4.58125C16.671 5.81758 17.4042 7.46649 17.5 9.21227V9.63105Z" stroke="#BDBDBD" stroke-width="2" stroke-linecap="round" stroke-linejoin="round"/>
</svg>
